ISO-10303-21;
HEADER;
/* Generated by software containing ST-Developer
 * from STEP Tools, Inc. (www.steptools.com) 
 */

FILE_DESCRIPTION(
/* description */ (''),
/* implementation_level */ '2;1');

FILE_NAME(
/* name */ 'anemometer mount.step',
/* time_stamp */ '2025-10-17T09:04:13-04:00',
/* author */ (''),
/* organization */ (''),
/* preprocessor_version */ 'ST-DEVELOPER v20.1',
/* originating_system */ 'Autodesk Translation Framework v14.10.0.0',
/* authorisation */ '');

FILE_SCHEMA (('AUTOMOTIVE_DESIGN { 1 0 10303 214 3 1 1 }'));
ENDSEC;

DATA;
#10=MECHANICAL_DESIGN_GEOMETRIC_PRESENTATION_REPRESENTATION('',(#13),#486);
#11=SHAPE_REPRESENTATION_RELATIONSHIP('SRR','None',#492,#12);
#12=ADVANCED_BREP_SHAPE_REPRESENTATION('',(#14),#485);
#13=STYLED_ITEM('',(#501),#14);
#14=MANIFOLD_SOLID_BREP('anemometer mount',#302);
#15=FACE_BOUND('',#50,.T.);
#16=FACE_BOUND('',#52,.T.);
#17=FACE_BOUND('',#54,.T.);
#18=FACE_BOUND('',#64,.T.);
#19=FACE_BOUND('',#65,.T.);
#20=FACE_BOUND('',#68,.T.);
#21=PLANE('',#307);
#22=PLANE('',#308);
#23=PLANE('',#310);
#24=PLANE('',#311);
#25=PLANE('',#312);
#26=PLANE('',#318);
#27=PLANE('',#319);
#28=PLANE('',#320);
#29=PLANE('',#321);
#30=PLANE('',#322);
#31=PLANE('',#323);
#32=PLANE('',#324);
#33=FACE_OUTER_BOUND('',#48,.T.);
#34=FACE_OUTER_BOUND('',#49,.T.);
#35=FACE_OUTER_BOUND('',#51,.T.);
#36=FACE_OUTER_BOUND('',#53,.T.);
#37=FACE_OUTER_BOUND('',#55,.T.);
#38=FACE_OUTER_BOUND('',#56,.T.);
#39=FACE_OUTER_BOUND('',#57,.T.);
#40=FACE_OUTER_BOUND('',#58,.T.);
#41=FACE_OUTER_BOUND('',#59,.T.);
#42=FACE_OUTER_BOUND('',#60,.T.);
#43=FACE_OUTER_BOUND('',#61,.T.);
#44=FACE_OUTER_BOUND('',#62,.T.);
#45=FACE_OUTER_BOUND('',#63,.T.);
#46=FACE_OUTER_BOUND('',#66,.T.);
#47=FACE_OUTER_BOUND('',#67,.T.);
#48=EDGE_LOOP('',(#206,#207,#208,#209));
#49=EDGE_LOOP('',(#210,#211,#212,#213,#214,#215));
#50=EDGE_LOOP('',(#216));
#51=EDGE_LOOP('',(#217,#218,#219,#220));
#52=EDGE_LOOP('',(#221));
#53=EDGE_LOOP('',(#222,#223,#224,#225,#226,#227));
#54=EDGE_LOOP('',(#228));
#55=EDGE_LOOP('',(#229,#230,#231,#232));
#56=EDGE_LOOP('',(#233,#234,#235,#236));
#57=EDGE_LOOP('',(#237,#238,#239,#240));
#58=EDGE_LOOP('',(#241,#242,#243,#244));
#59=EDGE_LOOP('',(#245,#246,#247,#248));
#60=EDGE_LOOP('',(#249,#250,#251,#252,#253,#254,#255,#256));
#61=EDGE_LOOP('',(#257,#258,#259,#260));
#62=EDGE_LOOP('',(#261,#262,#263,#264));
#63=EDGE_LOOP('',(#265,#266,#267,#268,#269,#270,#271,#272));
#64=EDGE_LOOP('',(#273));
#65=EDGE_LOOP('',(#274));
#66=EDGE_LOOP('',(#275,#276,#277,#278));
#67=EDGE_LOOP('',(#279,#280,#281,#282));
#68=EDGE_LOOP('',(#283));
#69=LINE('',#407,#102);
#70=LINE('',#412,#103);
#71=LINE('',#414,#104);
#72=LINE('',#416,#105);
#73=LINE('',#418,#106);
#74=LINE('',#420,#107);
#75=LINE('',#421,#108);
#76=LINE('',#425,#109);
#77=LINE('',#427,#110);
#78=LINE('',#429,#111);
#79=LINE('',#430,#112);
#80=LINE('',#435,#113);
#81=LINE('',#437,#114);
#82=LINE('',#439,#115);
#83=LINE('',#441,#116);
#84=LINE('',#442,#117);
#85=LINE('',#445,#118);
#86=LINE('',#446,#119);
#87=LINE('',#449,#120);
#88=LINE('',#450,#121);
#89=LINE('',#453,#122);
#90=LINE('',#459,#123);
#91=LINE('',#464,#124);
#92=LINE('',#466,#125);
#93=LINE('',#468,#126);
#94=LINE('',#469,#127);
#95=LINE('',#471,#128);
#96=LINE('',#472,#129);
#97=LINE('',#473,#130);
#98=LINE('',#475,#131);
#99=LINE('',#477,#132);
#100=LINE('',#479,#133);
#101=LINE('',#481,#134);
#102=VECTOR('',#331,0.849999999999991);
#103=VECTOR('',#336,10.);
#104=VECTOR('',#337,10.);
#105=VECTOR('',#338,10.);
#106=VECTOR('',#339,10.);
#107=VECTOR('',#340,10.);
#108=VECTOR('',#341,10.);
#109=VECTOR('',#344,10.);
#110=VECTOR('',#345,10.);
#111=VECTOR('',#346,10.);
#112=VECTOR('',#347,10.);
#113=VECTOR('',#352,10.);
#114=VECTOR('',#353,10.);
#115=VECTOR('',#354,10.);
#116=VECTOR('',#355,10.);
#117=VECTOR('',#356,10.);
#118=VECTOR('',#359,10.);
#119=VECTOR('',#360,10.);
#120=VECTOR('',#363,10.);
#121=VECTOR('',#364,10.);
#122=VECTOR('',#367,1.64999999999999);
#123=VECTOR('',#374,1.64999999999999);
#124=VECTOR('',#379,10.);
#125=VECTOR('',#380,10.);
#126=VECTOR('',#381,10.);
#127=VECTOR('',#382,10.);
#128=VECTOR('',#385,10.);
#129=VECTOR('',#386,10.);
#130=VECTOR('',#387,10.);
#131=VECTOR('',#390,10.);
#132=VECTOR('',#393,10.);
#133=VECTOR('',#396,10.);
#134=VECTOR('',#399,10.);
#135=CIRCLE('',#305,0.849999999999991);
#136=CIRCLE('',#306,0.849999999999991);
#137=CIRCLE('',#309,1.64999999999999);
#138=CIRCLE('',#314,1.64999999999999);
#139=CIRCLE('',#316,1.64999999999999);
#140=CIRCLE('',#317,1.64999999999999);
#141=VERTEX_POINT('',#404);
#142=VERTEX_POINT('',#406);
#143=VERTEX_POINT('',#410);
#144=VERTEX_POINT('',#411);
#145=VERTEX_POINT('',#413);
#146=VERTEX_POINT('',#415);
#147=VERTEX_POINT('',#417);
#148=VERTEX_POINT('',#419);
#149=VERTEX_POINT('',#423);
#150=VERTEX_POINT('',#424);
#151=VERTEX_POINT('',#426);
#152=VERTEX_POINT('',#428);
#153=VERTEX_POINT('',#431);
#154=VERTEX_POINT('',#434);
#155=VERTEX_POINT('',#436);
#156=VERTEX_POINT('',#438);
#157=VERTEX_POINT('',#440);
#158=VERTEX_POINT('',#444);
#159=VERTEX_POINT('',#448);
#160=VERTEX_POINT('',#452);
#161=VERTEX_POINT('',#456);
#162=VERTEX_POINT('',#458);
#163=VERTEX_POINT('',#462);
#164=VERTEX_POINT('',#463);
#165=VERTEX_POINT('',#465);
#166=VERTEX_POINT('',#467);
#167=EDGE_CURVE('',#141,#141,#135,.T.);
#168=EDGE_CURVE('',#141,#142,#69,.T.);
#169=EDGE_CURVE('',#142,#142,#136,.T.);
#170=EDGE_CURVE('',#143,#144,#70,.F.);
#171=EDGE_CURVE('',#145,#143,#71,.T.);
#172=EDGE_CURVE('',#146,#145,#72,.T.);
#173=EDGE_CURVE('',#146,#147,#73,.T.);
#174=EDGE_CURVE('',#148,#147,#74,.T.);
#175=EDGE_CURVE('',#144,#148,#75,.T.);
#176=EDGE_CURVE('',#149,#150,#76,.F.);
#177=EDGE_CURVE('',#150,#151,#77,.T.);
#178=EDGE_CURVE('',#151,#152,#78,.T.);
#179=EDGE_CURVE('',#152,#149,#79,.T.);
#180=EDGE_CURVE('',#153,#153,#137,.T.);
#181=EDGE_CURVE('',#154,#149,#80,.T.);
#182=EDGE_CURVE('',#155,#154,#81,.T.);
#183=EDGE_CURVE('',#156,#155,#82,.T.);
#184=EDGE_CURVE('',#157,#156,#83,.T.);
#185=EDGE_CURVE('',#150,#157,#84,.T.);
#186=EDGE_CURVE('',#158,#157,#85,.T.);
#187=EDGE_CURVE('',#158,#151,#86,.T.);
#188=EDGE_CURVE('',#159,#158,#87,.T.);
#189=EDGE_CURVE('',#159,#152,#88,.T.);
#190=EDGE_CURVE('',#153,#160,#89,.T.);
#191=EDGE_CURVE('',#160,#160,#138,.T.);
#192=EDGE_CURVE('',#161,#161,#139,.T.);
#193=EDGE_CURVE('',#161,#162,#90,.T.);
#194=EDGE_CURVE('',#162,#162,#140,.T.);
#195=EDGE_CURVE('',#163,#164,#91,.T.);
#196=EDGE_CURVE('',#163,#165,#92,.T.);
#197=EDGE_CURVE('',#166,#165,#93,.T.);
#198=EDGE_CURVE('',#164,#166,#94,.T.);
#199=EDGE_CURVE('',#164,#159,#95,.T.);
#200=EDGE_CURVE('',#144,#166,#96,.T.);
#201=EDGE_CURVE('',#154,#148,#97,.T.);
#202=EDGE_CURVE('',#147,#155,#98,.T.);
#203=EDGE_CURVE('',#156,#146,#99,.T.);
#204=EDGE_CURVE('',#145,#163,#100,.T.);
#205=EDGE_CURVE('',#165,#143,#101,.T.);
#206=ORIENTED_EDGE('',*,*,#167,.F.);
#207=ORIENTED_EDGE('',*,*,#168,.T.);
#208=ORIENTED_EDGE('',*,*,#169,.F.);
#209=ORIENTED_EDGE('',*,*,#168,.F.);
#210=ORIENTED_EDGE('',*,*,#170,.F.);
#211=ORIENTED_EDGE('',*,*,#171,.F.);
#212=ORIENTED_EDGE('',*,*,#172,.F.);
#213=ORIENTED_EDGE('',*,*,#173,.T.);
#214=ORIENTED_EDGE('',*,*,#174,.F.);
#215=ORIENTED_EDGE('',*,*,#175,.F.);
#216=ORIENTED_EDGE('',*,*,#167,.T.);
#217=ORIENTED_EDGE('',*,*,#176,.T.);
#218=ORIENTED_EDGE('',*,*,#177,.T.);
#219=ORIENTED_EDGE('',*,*,#178,.T.);
#220=ORIENTED_EDGE('',*,*,#179,.T.);
#221=ORIENTED_EDGE('',*,*,#180,.T.);
#222=ORIENTED_EDGE('',*,*,#176,.F.);
#223=ORIENTED_EDGE('',*,*,#181,.F.);
#224=ORIENTED_EDGE('',*,*,#182,.F.);
#225=ORIENTED_EDGE('',*,*,#183,.F.);
#226=ORIENTED_EDGE('',*,*,#184,.F.);
#227=ORIENTED_EDGE('',*,*,#185,.F.);
#228=ORIENTED_EDGE('',*,*,#169,.T.);
#229=ORIENTED_EDGE('',*,*,#185,.T.);
#230=ORIENTED_EDGE('',*,*,#186,.F.);
#231=ORIENTED_EDGE('',*,*,#187,.T.);
#232=ORIENTED_EDGE('',*,*,#177,.F.);
#233=ORIENTED_EDGE('',*,*,#188,.F.);
#234=ORIENTED_EDGE('',*,*,#189,.T.);
#235=ORIENTED_EDGE('',*,*,#178,.F.);
#236=ORIENTED_EDGE('',*,*,#187,.F.);
#237=ORIENTED_EDGE('',*,*,#180,.F.);
#238=ORIENTED_EDGE('',*,*,#190,.T.);
#239=ORIENTED_EDGE('',*,*,#191,.T.);
#240=ORIENTED_EDGE('',*,*,#190,.F.);
#241=ORIENTED_EDGE('',*,*,#192,.F.);
#242=ORIENTED_EDGE('',*,*,#193,.T.);
#243=ORIENTED_EDGE('',*,*,#194,.T.);
#244=ORIENTED_EDGE('',*,*,#193,.F.);
#245=ORIENTED_EDGE('',*,*,#195,.F.);
#246=ORIENTED_EDGE('',*,*,#196,.T.);
#247=ORIENTED_EDGE('',*,*,#197,.F.);
#248=ORIENTED_EDGE('',*,*,#198,.F.);
#249=ORIENTED_EDGE('',*,*,#199,.F.);
#250=ORIENTED_EDGE('',*,*,#198,.T.);
#251=ORIENTED_EDGE('',*,*,#200,.F.);
#252=ORIENTED_EDGE('',*,*,#175,.T.);
#253=ORIENTED_EDGE('',*,*,#201,.F.);
#254=ORIENTED_EDGE('',*,*,#181,.T.);
#255=ORIENTED_EDGE('',*,*,#179,.F.);
#256=ORIENTED_EDGE('',*,*,#189,.F.);
#257=ORIENTED_EDGE('',*,*,#201,.T.);
#258=ORIENTED_EDGE('',*,*,#174,.T.);
#259=ORIENTED_EDGE('',*,*,#202,.T.);
#260=ORIENTED_EDGE('',*,*,#182,.T.);
#261=ORIENTED_EDGE('',*,*,#183,.T.);
#262=ORIENTED_EDGE('',*,*,#202,.F.);
#263=ORIENTED_EDGE('',*,*,#173,.F.);
#264=ORIENTED_EDGE('',*,*,#203,.F.);
#265=ORIENTED_EDGE('',*,*,#204,.T.);
#266=ORIENTED_EDGE('',*,*,#195,.T.);
#267=ORIENTED_EDGE('',*,*,#199,.T.);
#268=ORIENTED_EDGE('',*,*,#188,.T.);
#269=ORIENTED_EDGE('',*,*,#186,.T.);
#270=ORIENTED_EDGE('',*,*,#184,.T.);
#271=ORIENTED_EDGE('',*,*,#203,.T.);
#272=ORIENTED_EDGE('',*,*,#172,.T.);
#273=ORIENTED_EDGE('',*,*,#191,.F.);
#274=ORIENTED_EDGE('',*,*,#194,.F.);
#275=ORIENTED_EDGE('',*,*,#171,.T.);
#276=ORIENTED_EDGE('',*,*,#205,.F.);
#277=ORIENTED_EDGE('',*,*,#196,.F.);
#278=ORIENTED_EDGE('',*,*,#204,.F.);
#279=ORIENTED_EDGE('',*,*,#170,.T.);
#280=ORIENTED_EDGE('',*,*,#200,.T.);
#281=ORIENTED_EDGE('',*,*,#197,.T.);
#282=ORIENTED_EDGE('',*,*,#205,.T.);
#283=ORIENTED_EDGE('',*,*,#192,.T.);
#284=CYLINDRICAL_SURFACE('',#304,0.849999999999991);
#285=CYLINDRICAL_SURFACE('',#313,1.64999999999999);
#286=CYLINDRICAL_SURFACE('',#315,1.64999999999999);
#287=ADVANCED_FACE('',(#33),#284,.F.);
#288=ADVANCED_FACE('',(#34,#15),#21,.T.);
#289=ADVANCED_FACE('',(#35,#16),#22,.T.);
#290=ADVANCED_FACE('',(#36,#17),#23,.T.);
#291=ADVANCED_FACE('',(#37),#24,.T.);
#292=ADVANCED_FACE('',(#38),#25,.T.);
#293=ADVANCED_FACE('',(#39),#285,.F.);
#294=ADVANCED_FACE('',(#40),#286,.F.);
#295=ADVANCED_FACE('',(#41),#26,.T.);
#296=ADVANCED_FACE('',(#42),#27,.T.);
#297=ADVANCED_FACE('',(#43),#28,.T.);
#298=ADVANCED_FACE('',(#44),#29,.T.);
#299=ADVANCED_FACE('',(#45,#18,#19),#30,.F.);
#300=ADVANCED_FACE('',(#46),#31,.T.);
#301=ADVANCED_FACE('',(#47,#20),#32,.T.);
#302=CLOSED_SHELL('',(#287,#288,#289,#290,#291,#292,#293,#294,#295,#296,
#297,#298,#299,#300,#301));
#303=AXIS2_PLACEMENT_3D('',#402,#325,#326);
#304=AXIS2_PLACEMENT_3D('',#403,#327,#328);
#305=AXIS2_PLACEMENT_3D('',#405,#329,#330);
#306=AXIS2_PLACEMENT_3D('',#408,#332,#333);
#307=AXIS2_PLACEMENT_3D('',#409,#334,#335);
#308=AXIS2_PLACEMENT_3D('',#422,#342,#343);
#309=AXIS2_PLACEMENT_3D('',#432,#348,#349);
#310=AXIS2_PLACEMENT_3D('',#433,#350,#351);
#311=AXIS2_PLACEMENT_3D('',#443,#357,#358);
#312=AXIS2_PLACEMENT_3D('',#447,#361,#362);
#313=AXIS2_PLACEMENT_3D('',#451,#365,#366);
#314=AXIS2_PLACEMENT_3D('',#454,#368,#369);
#315=AXIS2_PLACEMENT_3D('',#455,#370,#371);
#316=AXIS2_PLACEMENT_3D('',#457,#372,#373);
#317=AXIS2_PLACEMENT_3D('',#460,#375,#376);
#318=AXIS2_PLACEMENT_3D('',#461,#377,#378);
#319=AXIS2_PLACEMENT_3D('',#470,#383,#384);
#320=AXIS2_PLACEMENT_3D('',#474,#388,#389);
#321=AXIS2_PLACEMENT_3D('',#476,#391,#392);
#322=AXIS2_PLACEMENT_3D('',#478,#394,#395);
#323=AXIS2_PLACEMENT_3D('',#480,#397,#398);
#324=AXIS2_PLACEMENT_3D('',#482,#400,#401);
#325=DIRECTION('axis',(0.,0.,1.));
#326=DIRECTION('refdir',(1.,0.,0.));
#327=DIRECTION('center_axis',(-0.866025403784438,-0.500000000000001,-1.20185167898973E-17));
#328=DIRECTION('ref_axis',(1.38777878078145E-17,7.70371977754894E-34,-1.));
#329=DIRECTION('center_axis',(-0.866025403784439,-0.5,-1.20185167898973E-17));
#330=DIRECTION('ref_axis',(1.38777878078145E-17,7.70371977754894E-34,-1.));
#331=DIRECTION('',(-0.866025403784438,-0.500000000000001,-1.20185167898973E-17));
#332=DIRECTION('center_axis',(0.866025403784439,0.5,1.20185167898973E-17));
#333=DIRECTION('ref_axis',(1.38777878078145E-17,7.70371977754894E-34,-1.));
#334=DIRECTION('center_axis',(0.866025403784439,0.5,0.));
#335=DIRECTION('ref_axis',(-0.5,0.866025403784439,0.));
#336=DIRECTION('',(-0.5,0.866025403784439,0.));
#337=DIRECTION('',(0.,0.,1.));
#338=DIRECTION('',(0.5,-0.866025403784439,0.));
#339=DIRECTION('',(0.,0.,1.));
#340=DIRECTION('',(-0.5,0.866025403784439,0.));
#341=DIRECTION('',(0.,0.,1.));
#342=DIRECTION('center_axis',(0.,0.,1.));
#343=DIRECTION('ref_axis',(0.866025403784439,0.5,0.));
#344=DIRECTION('',(0.5,-0.866025403784439,0.));
#345=DIRECTION('',(-0.866025403784439,-0.5,0.));
#346=DIRECTION('',(0.5,-0.866025403784439,0.));
#347=DIRECTION('',(0.866025403784439,0.5,0.));
#348=DIRECTION('center_axis',(0.,0.,-1.));
#349=DIRECTION('ref_axis',(0.866025403784439,0.5,0.));
#350=DIRECTION('center_axis',(-0.866025403784439,-0.5,0.));
#351=DIRECTION('ref_axis',(0.5,-0.866025403784439,0.));
#352=DIRECTION('',(0.,0.,-1.));
#353=DIRECTION('',(0.5,-0.866025403784439,0.));
#354=DIRECTION('',(0.,0.,1.));
#355=DIRECTION('',(-0.5,0.866025403784439,0.));
#356=DIRECTION('',(0.,0.,-1.));
#357=DIRECTION('center_axis',(-0.5,0.866025403784439,0.));
#358=DIRECTION('ref_axis',(-0.866025403784439,-0.5,0.));
#359=DIRECTION('',(0.866025403784439,0.5,0.));
#360=DIRECTION('',(0.,0.,1.));
#361=DIRECTION('center_axis',(-0.866025403784439,-0.5,0.));
#362=DIRECTION('ref_axis',(0.5,-0.866025403784439,0.));
#363=DIRECTION('',(-0.5,0.866025403784439,0.));
#364=DIRECTION('',(0.,0.,1.));
#365=DIRECTION('center_axis',(0.,0.,1.));
#366=DIRECTION('ref_axis',(0.866025403784439,0.5,0.));
#367=DIRECTION('',(0.,0.,-1.));
#368=DIRECTION('center_axis',(0.,0.,-1.));
#369=DIRECTION('ref_axis',(0.866025403784439,0.5,0.));
#370=DIRECTION('center_axis',(0.,0.,1.));
#371=DIRECTION('ref_axis',(0.866025403784439,0.5,0.));
#372=DIRECTION('center_axis',(0.,0.,-1.));
#373=DIRECTION('ref_axis',(0.866025403784439,0.5,0.));
#374=DIRECTION('',(0.,0.,-1.));
#375=DIRECTION('center_axis',(0.,0.,-1.));
#376=DIRECTION('ref_axis',(0.866025403784439,0.5,0.));
#377=DIRECTION('center_axis',(0.866025403784439,0.5,0.));
#378=DIRECTION('ref_axis',(-0.5,0.866025403784439,0.));
#379=DIRECTION('',(0.5,-0.866025403784439,0.));
#380=DIRECTION('',(0.,0.,1.));
#381=DIRECTION('',(-0.5,0.866025403784439,0.));
#382=DIRECTION('',(0.,0.,1.));
#383=DIRECTION('center_axis',(0.5,-0.866025403784439,0.));
#384=DIRECTION('ref_axis',(0.866025403784439,0.5,0.));
#385=DIRECTION('',(-0.866025403784439,-0.5,0.));
#386=DIRECTION('',(0.866025403784439,0.5,0.));
#387=DIRECTION('',(0.866025403784439,0.5,0.));
#388=DIRECTION('center_axis',(0.,0.,1.));
#389=DIRECTION('ref_axis',(0.866025403784439,0.5,0.));
#390=DIRECTION('',(-0.866025403784439,-0.5,0.));
#391=DIRECTION('center_axis',(-0.5,0.866025403784439,0.));
#392=DIRECTION('ref_axis',(-0.866025403784439,-0.5,0.));
#393=DIRECTION('',(0.866025403784439,0.5,0.));
#394=DIRECTION('center_axis',(0.,0.,1.));
#395=DIRECTION('ref_axis',(0.866025403784439,0.5,0.));
#396=DIRECTION('',(0.866025403784439,0.5,0.));
#397=DIRECTION('center_axis',(-0.5,0.866025403784439,0.));
#398=DIRECTION('ref_axis',(-0.866025403784439,-0.5,0.));
#399=DIRECTION('',(-0.866025403784439,-0.5,0.));
#400=DIRECTION('center_axis',(0.,0.,1.));
#401=DIRECTION('ref_axis',(0.866025403784439,0.5,0.));
#402=CARTESIAN_POINT('',(0.,0.,0.));
#403=CARTESIAN_POINT('Origin',(-120.792402505797,232.214471633242,77.6242099988251));
#404=CARTESIAN_POINT('',(-120.792402505797,232.214471633242,78.4742099988251));
#405=CARTESIAN_POINT('Origin',(-120.792402505797,232.214471633242,77.6242099988251));
#406=CARTESIAN_POINT('',(-123.217273636393,230.814471633242,78.4742099988251));
#407=CARTESIAN_POINT('',(-120.792402505797,232.214471633242,78.4742099988251));
#408=CARTESIAN_POINT('Origin',(-123.217273636393,230.814471633242,77.6242099988251));
#409=CARTESIAN_POINT('Origin',(-116.962362447863,225.580647657876,4.));
#410=CARTESIAN_POINT('',(-121.962362447863,234.240901695721,8.));
#411=CARTESIAN_POINT('',(-116.962362447863,225.580647657876,8.));
#412=CARTESIAN_POINT('',(-118.212362447863,227.745711167338,8.));
#413=CARTESIAN_POINT('',(-121.962362447863,234.240901695721,0.));
#414=CARTESIAN_POINT('',(-121.962362447863,234.240901695721,2.));
#415=CARTESIAN_POINT('',(-128.896345708839,246.250913002564,0.));
#416=CARTESIAN_POINT('',(-116.962362447863,225.580647657876,0.));
#417=CARTESIAN_POINT('',(-128.896345708839,246.250913002564,83.2525139809858));
#418=CARTESIAN_POINT('',(-128.896345708839,246.250913002564,4.));
#419=CARTESIAN_POINT('',(-116.962362447863,225.580647657876,83.2525139809858));
#420=CARTESIAN_POINT('',(-119.996154036045,230.835328828182,83.2525139809858));
#421=CARTESIAN_POINT('',(-116.962362447863,225.580647657876,4.));
#422=CARTESIAN_POINT('Origin',(-120.674798013161,229.210774676799,8.));
#423=CARTESIAN_POINT('',(-119.38723357846,224.180647657876,8.));
#424=CARTESIAN_POINT('',(-124.38723357846,232.840901695721,8.));
#425=CARTESIAN_POINT('',(-126.604225208948,236.680843839681,8.));
#426=CARTESIAN_POINT('',(-131.835052051006,228.540901695721,8.));
#427=CARTESIAN_POINT('',(-118.844670994239,236.040901695721,8.));
#428=CARTESIAN_POINT('',(-126.835052051006,219.880647657876,8.));
#429=CARTESIAN_POINT('',(-130.585052051006,226.37583818626,8.));
#430=CARTESIAN_POINT('',(-122.504925032084,222.380647657876,8.));
#431=CARTESIAN_POINT('',(-126.433866948328,225.885774676799,8.));
#432=CARTESIAN_POINT('Origin',(-125.004925032084,226.710774676799,8.));
#433=CARTESIAN_POINT('Origin',(-131.321216839436,244.850913002564,4.));
#434=CARTESIAN_POINT('',(-119.38723357846,224.180647657876,83.2525139809858));
#435=CARTESIAN_POINT('',(-119.38723357846,224.180647657876,4.));
#436=CARTESIAN_POINT('',(-131.321216839436,244.850913002564,83.2525139809858));
#437=CARTESIAN_POINT('',(-122.421025166641,229.435328828182,83.2525139809858));
#438=CARTESIAN_POINT('',(-131.321216839436,244.850913002564,0.));
#439=CARTESIAN_POINT('',(-131.321216839436,244.850913002564,4.));
#440=CARTESIAN_POINT('',(-124.38723357846,232.840901695721,0.));
#441=CARTESIAN_POINT('',(-119.38723357846,224.180647657876,0.));
#442=CARTESIAN_POINT('',(-124.38723357846,232.840901695721,2.));
#443=CARTESIAN_POINT('Origin',(-114.514543975317,238.540901695721,0.));
#444=CARTESIAN_POINT('',(-131.835052051006,228.540901695721,0.));
#445=CARTESIAN_POINT('',(-131.835052051006,228.540901695721,0.));
#446=CARTESIAN_POINT('',(-131.835052051006,228.540901695721,0.));
#447=CARTESIAN_POINT('Origin',(-131.835052051006,228.540901695721,0.));
#448=CARTESIAN_POINT('',(-126.835052051006,219.880647657876,0.));
#449=CARTESIAN_POINT('',(-126.835052051006,219.880647657876,0.));
#450=CARTESIAN_POINT('',(-126.835052051006,219.880647657876,0.));
#451=CARTESIAN_POINT('Origin',(-125.004925032084,226.710774676799,0.));
#452=CARTESIAN_POINT('',(-126.433866948328,225.885774676799,0.));
#453=CARTESIAN_POINT('',(-126.433866948328,225.885774676799,0.));
#454=CARTESIAN_POINT('Origin',(-125.004925032084,226.710774676799,0.));
#455=CARTESIAN_POINT('Origin',(-116.344670994239,231.710774676799,0.));
#456=CARTESIAN_POINT('',(-117.773612910483,230.885774676799,8.));
#457=CARTESIAN_POINT('Origin',(-116.344670994239,231.710774676799,8.));
#458=CARTESIAN_POINT('',(-117.773612910483,230.885774676799,0.));
#459=CARTESIAN_POINT('',(-117.773612910483,230.885774676799,0.));
#460=CARTESIAN_POINT('Origin',(-116.344670994239,231.710774676799,0.));
#461=CARTESIAN_POINT('Origin',(-109.514543975317,229.880647657876,0.));
#462=CARTESIAN_POINT('',(-114.514543975317,238.540901695721,0.));
#463=CARTESIAN_POINT('',(-109.514543975317,229.880647657876,0.));
#464=CARTESIAN_POINT('',(-114.514543975317,238.540901695721,0.));
#465=CARTESIAN_POINT('',(-114.514543975317,238.540901695721,8.));
#466=CARTESIAN_POINT('',(-114.514543975317,238.540901695721,0.));
#467=CARTESIAN_POINT('',(-109.514543975317,229.880647657876,8.));
#468=CARTESIAN_POINT('',(-110.764543975317,232.045711167338,8.));
#469=CARTESIAN_POINT('',(-109.514543975317,229.880647657876,0.));
#470=CARTESIAN_POINT('Origin',(-126.835052051006,219.880647657876,0.));
#471=CARTESIAN_POINT('',(-109.514543975317,229.880647657876,0.));
#472=CARTESIAN_POINT('',(-122.504925032084,222.380647657876,8.));
#473=CARTESIAN_POINT('',(-122.504925032084,222.380647657876,83.2525139809858));
#474=CARTESIAN_POINT('Origin',(-127.175581231831,240.470461500526,83.2525139809858));
#475=CARTESIAN_POINT('',(-129.502563491488,245.900913002564,83.2525139809858));
#476=CARTESIAN_POINT('Origin',(-128.896345708839,246.250913002564,4.));
#477=CARTESIAN_POINT('',(-128.896345708839,246.250913002564,0.));
#478=CARTESIAN_POINT('Origin',(-120.674798013161,229.210774676799,0.));
#479=CARTESIAN_POINT('',(-131.835052051006,228.540901695721,0.));
#480=CARTESIAN_POINT('Origin',(-114.514543975317,238.540901695721,0.));
#481=CARTESIAN_POINT('',(-118.844670994239,236.040901695721,8.));
#482=CARTESIAN_POINT('Origin',(-120.674798013161,229.210774676799,8.));
#483=UNCERTAINTY_MEASURE_WITH_UNIT(LENGTH_MEASURE(0.01),#487,
'DISTANCE_ACCURACY_VALUE',
'Maximum model space distance between geometric entities at asserted c
onnectivities');
#484=UNCERTAINTY_MEASURE_WITH_UNIT(LENGTH_MEASURE(0.01),#487,
'DISTANCE_ACCURACY_VALUE',
'Maximum model space distance between geometric entities at asserted c
onnectivities');
#485=(
GEOMETRIC_REPRESENTATION_CONTEXT(3)
GLOBAL_UNCERTAINTY_ASSIGNED_CONTEXT((#483))
GLOBAL_UNIT_ASSIGNED_CONTEXT((#487,#488,#489))
REPRESENTATION_CONTEXT('','3D')
);
#486=(
GEOMETRIC_REPRESENTATION_CONTEXT(3)
GLOBAL_UNCERTAINTY_ASSIGNED_CONTEXT((#484))
GLOBAL_UNIT_ASSIGNED_CONTEXT((#487,#488,#489))
REPRESENTATION_CONTEXT('','3D')
);
#487=(
LENGTH_UNIT()
NAMED_UNIT(*)
SI_UNIT(.MILLI.,.METRE.)
);
#488=(
NAMED_UNIT(*)
PLANE_ANGLE_UNIT()
SI_UNIT($,.RADIAN.)
);
#489=(
NAMED_UNIT(*)
SI_UNIT($,.STERADIAN.)
SOLID_ANGLE_UNIT()
);
#490=SHAPE_DEFINITION_REPRESENTATION(#491,#492);
#491=PRODUCT_DEFINITION_SHAPE('',$,#494);
#492=SHAPE_REPRESENTATION('',(#303),#485);
#493=PRODUCT_DEFINITION_CONTEXT('part definition',#498,'design');
#494=PRODUCT_DEFINITION('bqap_bqfb_num_10 (v4~recovered)',
'bqap_bqfb_num_10 (v4~recovered)',#495,#493);
#495=PRODUCT_DEFINITION_FORMATION('',$,#500);
#496=PRODUCT_RELATED_PRODUCT_CATEGORY('bqap_bqfb_num_10 (v4~recovered)',
'bqap_bqfb_num_10 (v4~recovered)',(#500));
#497=APPLICATION_PROTOCOL_DEFINITION('international standard',
'automotive_design',2009,#498);
#498=APPLICATION_CONTEXT(
'Core Data for Automotive Mechanical Design Process');
#499=PRODUCT_CONTEXT('part definition',#498,'mechanical');
#500=PRODUCT('bqap_bqfb_num_10 (v4~recovered)',
'bqap_bqfb_num_10 (v4~recovered)',$,(#499));
#501=PRESENTATION_STYLE_ASSIGNMENT((#507));
#502=PRESENTATION_STYLE_ASSIGNMENT((#508));
#503=PRESENTATION_STYLE_ASSIGNMENT((#509));
#504=PRESENTATION_STYLE_ASSIGNMENT((#510));
#505=PRESENTATION_STYLE_ASSIGNMENT((#511));
#506=PRESENTATION_STYLE_ASSIGNMENT((#512));
#507=SURFACE_STYLE_USAGE(.BOTH.,#513);
#508=SURFACE_STYLE_USAGE(.BOTH.,#514);
#509=SURFACE_STYLE_USAGE(.BOTH.,#515);
#510=SURFACE_STYLE_USAGE(.BOTH.,#516);
#511=SURFACE_STYLE_USAGE(.BOTH.,#517);
#512=SURFACE_STYLE_USAGE(.BOTH.,#518);
#513=SURFACE_SIDE_STYLE('',(#519));
#514=SURFACE_SIDE_STYLE('',(#520));
#515=SURFACE_SIDE_STYLE('',(#521));
#516=SURFACE_SIDE_STYLE('',(#522));
#517=SURFACE_SIDE_STYLE('',(#523));
#518=SURFACE_SIDE_STYLE('',(#524));
#519=SURFACE_STYLE_FILL_AREA(#525);
#520=SURFACE_STYLE_FILL_AREA(#526);
#521=SURFACE_STYLE_FILL_AREA(#527);
#522=SURFACE_STYLE_FILL_AREA(#528);
#523=SURFACE_STYLE_FILL_AREA(#529);
#524=SURFACE_STYLE_FILL_AREA(#530);
#525=FILL_AREA_STYLE('Steel - Satin',(#531));
#526=FILL_AREA_STYLE('Opaque(160,160,160) (1)',(#532));
#527=FILL_AREA_STYLE('3D Cherry - Glossy',(#533));
#528=FILL_AREA_STYLE('Opaque(160,160,160)',(#534));
#529=FILL_AREA_STYLE('ABS (White)',(#535));
#530=FILL_AREA_STYLE('Opaque(160,160,160) (2)',(#536));
#531=FILL_AREA_STYLE_COLOUR('Steel - Satin',#537);
#532=FILL_AREA_STYLE_COLOUR('Opaque(160,160,160) (1)',#538);
#533=FILL_AREA_STYLE_COLOUR('3D Cherry - Glossy',#539);
#534=FILL_AREA_STYLE_COLOUR('Opaque(160,160,160)',#540);
#535=FILL_AREA_STYLE_COLOUR('ABS (White)',#541);
#536=FILL_AREA_STYLE_COLOUR('Opaque(160,160,160) (2)',#542);
#537=COLOUR_RGB('Steel - Satin',0.627450980392157,0.627450980392157,0.627450980392157);
#538=COLOUR_RGB('Opaque(160,160,160) (1)',0.,0.,0.);
#539=COLOUR_RGB('3D Cherry - Glossy',0.67843137254902,0.419607843137255,
0.262745098039216);
#540=COLOUR_RGB('Opaque(160,160,160)',0.627450980392157,0.627450980392157,
0.627450980392157);
#541=COLOUR_RGB('ABS (White)',0.964705882352941,0.964705882352941,0.952941176470588);
#542=COLOUR_RGB('Opaque(160,160,160) (2)',0.627450980392157,0.627450980392157,
0.627450980392157);
ENDSEC;
END-ISO-10303-21;
