ISO-10303-21;
HEADER;
/* Generated by software containing ST-Developer
 * from STEP Tools, Inc. (www.steptools.com) 
 */

FILE_DESCRIPTION(
/* description */ (''),
/* implementation_level */ '2;1');

FILE_NAME(
/* name */ 'asa_center.step',
/* time_stamp */ '2025-10-17T09:02:49-04:00',
/* author */ (''),
/* organization */ (''),
/* preprocessor_version */ 'ST-DEVELOPER v20.1',
/* originating_system */ 'Autodesk Translation Framework v14.10.0.0',
/* authorisation */ '');

FILE_SCHEMA (('AUTOMOTIVE_DESIGN { 1 0 10303 214 3 1 1 }'));
ENDSEC;

DATA;
#10=MECHANICAL_DESIGN_GEOMETRIC_PRESENTATION_REPRESENTATION('',(#13),#1300);
#11=SHAPE_REPRESENTATION_RELATIONSHIP('SRR','None',#1306,#12);
#12=ADVANCED_BREP_SHAPE_REPRESENTATION('',(#14),#1299);
#13=STYLED_ITEM('',(#1315),#14);
#14=MANIFOLD_SOLID_BREP('asa_center_primary',#740);
#15=CYLINDRICAL_SURFACE('',#770,1.59999999999997);
#16=CYLINDRICAL_SURFACE('',#774,1.59999999999997);
#17=CYLINDRICAL_SURFACE('',#778,1.59999999999997);
#18=CYLINDRICAL_SURFACE('',#782,1.59999999999997);
#19=CYLINDRICAL_SURFACE('',#786,1.59999999999997);
#20=CYLINDRICAL_SURFACE('',#790,1.59999999999997);
#21=CYLINDRICAL_SURFACE('',#794,1.59999999999997);
#22=CYLINDRICAL_SURFACE('',#798,1.59999999999997);
#23=CYLINDRICAL_SURFACE('',#818,1.65);
#24=CYLINDRICAL_SURFACE('',#820,1.65);
#25=CYLINDRICAL_SURFACE('',#822,1.65);
#26=CYLINDRICAL_SURFACE('',#824,1.65);
#27=CYLINDRICAL_SURFACE('',#826,1.65);
#28=CYLINDRICAL_SURFACE('',#828,1.65);
#29=CYLINDRICAL_SURFACE('',#830,50.);
#30=CYLINDRICAL_SURFACE('',#837,26.4000000149012);
#31=CYLINDRICAL_SURFACE('',#839,65.);
#32=CYLINDRICAL_SURFACE('',#841,26.4000000149012);
#33=CYLINDRICAL_SURFACE('',#843,65.);
#34=FACE_BOUND('',#201,.T.);
#35=FACE_BOUND('',#202,.T.);
#36=FACE_BOUND('',#203,.T.);
#37=FACE_BOUND('',#204,.T.);
#38=FACE_BOUND('',#205,.T.);
#39=FACE_BOUND('',#206,.T.);
#40=FACE_BOUND('',#207,.T.);
#41=FACE_BOUND('',#208,.T.);
#42=FACE_BOUND('',#209,.T.);
#43=FACE_BOUND('',#210,.T.);
#44=FACE_BOUND('',#211,.T.);
#45=FACE_BOUND('',#212,.T.);
#46=FACE_BOUND('',#213,.T.);
#47=FACE_BOUND('',#214,.T.);
#48=FACE_BOUND('',#232,.T.);
#49=FACE_BOUND('',#233,.T.);
#50=FACE_BOUND('',#234,.T.);
#51=FACE_BOUND('',#235,.T.);
#52=FACE_BOUND('',#236,.T.);
#53=FACE_BOUND('',#237,.T.);
#54=FACE_BOUND('',#238,.T.);
#55=FACE_BOUND('',#239,.T.);
#56=FACE_BOUND('',#255,.T.);
#57=FACE_BOUND('',#256,.T.);
#58=FACE_BOUND('',#257,.T.);
#59=FACE_BOUND('',#263,.T.);
#60=FACE_BOUND('',#264,.T.);
#61=FACE_BOUND('',#265,.T.);
#62=LINE('',#1109,#101);
#63=LINE('',#1148,#102);
#64=LINE('',#1152,#103);
#65=LINE('',#1156,#104);
#66=LINE('',#1160,#105);
#67=LINE('',#1164,#106);
#68=LINE('',#1168,#107);
#69=LINE('',#1172,#108);
#70=LINE('',#1176,#109);
#71=LINE('',#1180,#110);
#72=LINE('',#1184,#111);
#73=LINE('',#1188,#112);
#74=LINE('',#1192,#113);
#75=LINE('',#1196,#114);
#76=LINE('',#1200,#115);
#77=LINE('',#1204,#116);
#78=LINE('',#1209,#117);
#79=LINE('',#1228,#118);
#80=LINE('',#1230,#119);
#81=LINE('',#1232,#120);
#82=LINE('',#1234,#121);
#83=LINE('',#1236,#122);
#84=LINE('',#1238,#123);
#85=LINE('',#1240,#124);
#86=LINE('',#1243,#125);
#87=LINE('',#1247,#126);
#88=LINE('',#1251,#127);
#89=LINE('',#1255,#128);
#90=LINE('',#1259,#129);
#91=LINE('',#1263,#130);
#92=LINE('',#1267,#131);
#93=LINE('',#1270,#132);
#94=LINE('',#1271,#133);
#95=LINE('',#1273,#134);
#96=LINE('',#1276,#135);
#97=LINE('',#1284,#136);
#98=LINE('',#1286,#137);
#99=LINE('',#1291,#138);
#100=LINE('',#1294,#139);
#101=VECTOR('',#865,2.24999999999998);
#102=VECTOR('',#906,1.59999999999997);
#103=VECTOR('',#911,2.24999999999998);
#104=VECTOR('',#916,1.59999999999997);
#105=VECTOR('',#921,2.24999999999998);
#106=VECTOR('',#926,1.59999999999997);
#107=VECTOR('',#931,2.24999999999998);
#108=VECTOR('',#936,1.59999999999997);
#109=VECTOR('',#941,2.24999999999998);
#110=VECTOR('',#946,1.59999999999997);
#111=VECTOR('',#951,2.24999999999998);
#112=VECTOR('',#956,1.59999999999997);
#113=VECTOR('',#961,2.24999999999998);
#114=VECTOR('',#966,1.59999999999997);
#115=VECTOR('',#971,2.24999999999998);
#116=VECTOR('',#976,1.59999999999997);
#117=VECTOR('',#983,2.24999999999998);
#118=VECTOR('',#1004,2.24999999999998);
#119=VECTOR('',#1007,2.24999999999998);
#120=VECTOR('',#1010,2.24999999999998);
#121=VECTOR('',#1013,2.24999999999998);
#122=VECTOR('',#1016,2.24999999999998);
#123=VECTOR('',#1019,2.24999999999998);
#124=VECTOR('',#1022,2.24999999999998);
#125=VECTOR('',#1025,1.65);
#126=VECTOR('',#1030,1.65);
#127=VECTOR('',#1035,1.65);
#128=VECTOR('',#1040,1.65);
#129=VECTOR('',#1045,1.65);
#130=VECTOR('',#1050,1.65);
#131=VECTOR('',#1055,10.);
#132=VECTOR('',#1058,10.);
#133=VECTOR('',#1059,50.);
#134=VECTOR('',#1060,10.);
#135=VECTOR('',#1063,10.);
#136=VECTOR('',#1074,10.);
#137=VECTOR('',#1075,10.);
#138=VECTOR('',#1082,10.);
#139=VECTOR('',#1087,10.);
#140=CONICAL_SURFACE('',#749,2.24999999999998,0.785398163397458);
#141=CONICAL_SURFACE('',#772,2.24999999999998,0.785398163397458);
#142=CONICAL_SURFACE('',#776,2.24999999999998,0.785398163397458);
#143=CONICAL_SURFACE('',#780,2.24999999999998,0.785398163397458);
#144=CONICAL_SURFACE('',#784,2.24999999999998,0.785398163397458);
#145=CONICAL_SURFACE('',#788,2.24999999999998,0.785398163397458);
#146=CONICAL_SURFACE('',#792,2.24999999999998,0.785398163397458);
#147=CONICAL_SURFACE('',#796,2.24999999999998,0.785398163397458);
#148=CONICAL_SURFACE('',#800,2.24999999999998,0.785398163397458);
#149=CONICAL_SURFACE('',#811,2.24999999999998,0.785398163397458);
#150=CONICAL_SURFACE('',#812,2.24999999999998,0.785398163397458);
#151=CONICAL_SURFACE('',#813,2.24999999999998,0.785398163397458);
#152=CONICAL_SURFACE('',#814,2.24999999999998,0.785398163397458);
#153=CONICAL_SURFACE('',#815,2.24999999999998,0.785398163397458);
#154=CONICAL_SURFACE('',#816,2.24999999999998,0.785398163397458);
#155=CONICAL_SURFACE('',#817,2.24999999999998,0.785398163397458);
#156=FACE_OUTER_BOUND('',#197,.T.);
#157=FACE_OUTER_BOUND('',#198,.T.);
#158=FACE_OUTER_BOUND('',#199,.T.);
#159=FACE_OUTER_BOUND('',#200,.T.);
#160=FACE_OUTER_BOUND('',#215,.T.);
#161=FACE_OUTER_BOUND('',#216,.T.);
#162=FACE_OUTER_BOUND('',#217,.T.);
#163=FACE_OUTER_BOUND('',#218,.T.);
#164=FACE_OUTER_BOUND('',#219,.T.);
#165=FACE_OUTER_BOUND('',#220,.T.);
#166=FACE_OUTER_BOUND('',#221,.T.);
#167=FACE_OUTER_BOUND('',#222,.T.);
#168=FACE_OUTER_BOUND('',#223,.T.);
#169=FACE_OUTER_BOUND('',#224,.T.);
#170=FACE_OUTER_BOUND('',#225,.T.);
#171=FACE_OUTER_BOUND('',#226,.T.);
#172=FACE_OUTER_BOUND('',#227,.T.);
#173=FACE_OUTER_BOUND('',#228,.T.);
#174=FACE_OUTER_BOUND('',#229,.T.);
#175=FACE_OUTER_BOUND('',#230,.T.);
#176=FACE_OUTER_BOUND('',#231,.T.);
#177=FACE_OUTER_BOUND('',#240,.T.);
#178=FACE_OUTER_BOUND('',#241,.T.);
#179=FACE_OUTER_BOUND('',#242,.T.);
#180=FACE_OUTER_BOUND('',#243,.T.);
#181=FACE_OUTER_BOUND('',#244,.T.);
#182=FACE_OUTER_BOUND('',#245,.T.);
#183=FACE_OUTER_BOUND('',#246,.T.);
#184=FACE_OUTER_BOUND('',#247,.T.);
#185=FACE_OUTER_BOUND('',#248,.T.);
#186=FACE_OUTER_BOUND('',#249,.T.);
#187=FACE_OUTER_BOUND('',#250,.T.);
#188=FACE_OUTER_BOUND('',#251,.T.);
#189=FACE_OUTER_BOUND('',#252,.T.);
#190=FACE_OUTER_BOUND('',#253,.T.);
#191=FACE_OUTER_BOUND('',#254,.T.);
#192=FACE_OUTER_BOUND('',#258,.T.);
#193=FACE_OUTER_BOUND('',#259,.T.);
#194=FACE_OUTER_BOUND('',#260,.T.);
#195=FACE_OUTER_BOUND('',#261,.T.);
#196=FACE_OUTER_BOUND('',#262,.T.);
#197=EDGE_LOOP('',(#491,#492));
#198=EDGE_LOOP('',(#493,#494,#495));
#199=EDGE_LOOP('',(#496,#497,#498,#499));
#200=EDGE_LOOP('',(#500,#501,#502,#503));
#201=EDGE_LOOP('',(#504));
#202=EDGE_LOOP('',(#505));
#203=EDGE_LOOP('',(#506));
#204=EDGE_LOOP('',(#507));
#205=EDGE_LOOP('',(#508));
#206=EDGE_LOOP('',(#509));
#207=EDGE_LOOP('',(#510));
#208=EDGE_LOOP('',(#511));
#209=EDGE_LOOP('',(#512));
#210=EDGE_LOOP('',(#513));
#211=EDGE_LOOP('',(#514));
#212=EDGE_LOOP('',(#515));
#213=EDGE_LOOP('',(#516));
#214=EDGE_LOOP('',(#517));
#215=EDGE_LOOP('',(#518,#519,#520,#521));
#216=EDGE_LOOP('',(#522,#523,#524,#525));
#217=EDGE_LOOP('',(#526,#527,#528,#529));
#218=EDGE_LOOP('',(#530,#531,#532,#533));
#219=EDGE_LOOP('',(#534,#535,#536,#537));
#220=EDGE_LOOP('',(#538,#539,#540,#541));
#221=EDGE_LOOP('',(#542,#543,#544,#545));
#222=EDGE_LOOP('',(#546,#547,#548,#549));
#223=EDGE_LOOP('',(#550,#551,#552,#553));
#224=EDGE_LOOP('',(#554,#555,#556,#557));
#225=EDGE_LOOP('',(#558,#559,#560,#561));
#226=EDGE_LOOP('',(#562,#563,#564,#565));
#227=EDGE_LOOP('',(#566,#567,#568,#569));
#228=EDGE_LOOP('',(#570,#571,#572,#573));
#229=EDGE_LOOP('',(#574,#575,#576,#577));
#230=EDGE_LOOP('',(#578,#579,#580,#581));
#231=EDGE_LOOP('',(#582));
#232=EDGE_LOOP('',(#583));
#233=EDGE_LOOP('',(#584));
#234=EDGE_LOOP('',(#585));
#235=EDGE_LOOP('',(#586));
#236=EDGE_LOOP('',(#587));
#237=EDGE_LOOP('',(#588));
#238=EDGE_LOOP('',(#589));
#239=EDGE_LOOP('',(#590));
#240=EDGE_LOOP('',(#591,#592,#593,#594));
#241=EDGE_LOOP('',(#595,#596,#597,#598));
#242=EDGE_LOOP('',(#599,#600,#601,#602));
#243=EDGE_LOOP('',(#603,#604,#605,#606));
#244=EDGE_LOOP('',(#607,#608,#609,#610));
#245=EDGE_LOOP('',(#611,#612,#613,#614));
#246=EDGE_LOOP('',(#615,#616,#617,#618));
#247=EDGE_LOOP('',(#619,#620,#621,#622));
#248=EDGE_LOOP('',(#623,#624,#625,#626));
#249=EDGE_LOOP('',(#627,#628,#629,#630));
#250=EDGE_LOOP('',(#631,#632,#633,#634));
#251=EDGE_LOOP('',(#635,#636,#637,#638));
#252=EDGE_LOOP('',(#639,#640,#641,#642));
#253=EDGE_LOOP('',(#643,#644,#645,#646,#647,#648,#649,#650,#651,#652,#653,
#654));
#254=EDGE_LOOP('',(#655,#656,#657,#658));
#255=EDGE_LOOP('',(#659));
#256=EDGE_LOOP('',(#660));
#257=EDGE_LOOP('',(#661));
#258=EDGE_LOOP('',(#662,#663,#664,#665,#666,#667,#668,#669));
#259=EDGE_LOOP('',(#670,#671,#672,#673));
#260=EDGE_LOOP('',(#674,#675,#676,#677,#678,#679,#680,#681));
#261=EDGE_LOOP('',(#682,#683,#684,#685));
#262=EDGE_LOOP('',(#686,#687,#688,#689));
#263=EDGE_LOOP('',(#690));
#264=EDGE_LOOP('',(#691));
#265=EDGE_LOOP('',(#692));
#266=CIRCLE('',#743,26.4000000149012);
#267=CIRCLE('',#744,50.);
#268=CIRCLE('',#746,26.4000000149012);
#269=CIRCLE('',#747,50.);
#270=CIRCLE('',#748,50.);
#271=CIRCLE('',#750,2.89999999999999);
#272=CIRCLE('',#751,1.59999999999997);
#273=CIRCLE('',#753,65.);
#274=CIRCLE('',#754,26.4000000149012);
#275=CIRCLE('',#755,65.);
#276=CIRCLE('',#756,26.4000000149012);
#277=CIRCLE('',#757,2.89999999999999);
#278=CIRCLE('',#758,2.89999999999999);
#279=CIRCLE('',#759,2.89999999999999);
#280=CIRCLE('',#760,2.89999999999999);
#281=CIRCLE('',#761,1.65);
#282=CIRCLE('',#762,1.65);
#283=CIRCLE('',#763,1.65);
#284=CIRCLE('',#764,1.65);
#285=CIRCLE('',#765,1.65);
#286=CIRCLE('',#766,1.65);
#287=CIRCLE('',#767,2.89999999999999);
#288=CIRCLE('',#768,2.89999999999999);
#289=CIRCLE('',#769,2.89999999999999);
#290=CIRCLE('',#771,1.59999999999997);
#291=CIRCLE('',#773,1.59999999999997);
#292=CIRCLE('',#775,1.59999999999997);
#293=CIRCLE('',#777,1.59999999999997);
#294=CIRCLE('',#779,1.59999999999997);
#295=CIRCLE('',#781,1.59999999999997);
#296=CIRCLE('',#783,1.59999999999997);
#297=CIRCLE('',#785,1.59999999999997);
#298=CIRCLE('',#787,1.59999999999997);
#299=CIRCLE('',#789,1.59999999999997);
#300=CIRCLE('',#791,1.59999999999997);
#301=CIRCLE('',#793,1.59999999999997);
#302=CIRCLE('',#795,1.59999999999997);
#303=CIRCLE('',#797,1.59999999999997);
#304=CIRCLE('',#799,1.59999999999997);
#305=CIRCLE('',#801,2.89999999999999);
#306=CIRCLE('',#803,50.);
#307=CIRCLE('',#804,2.89999999999999);
#308=CIRCLE('',#805,2.89999999999999);
#309=CIRCLE('',#806,2.89999999999999);
#310=CIRCLE('',#807,2.89999999999999);
#311=CIRCLE('',#808,2.89999999999999);
#312=CIRCLE('',#809,2.89999999999999);
#313=CIRCLE('',#810,2.89999999999999);
#314=CIRCLE('',#819,1.65);
#315=CIRCLE('',#821,1.65);
#316=CIRCLE('',#823,1.65);
#317=CIRCLE('',#825,1.65);
#318=CIRCLE('',#827,1.65);
#319=CIRCLE('',#829,1.65);
#320=CIRCLE('',#831,50.);
#321=CIRCLE('',#832,50.);
#322=CIRCLE('',#834,26.4000000149012);
#323=CIRCLE('',#835,65.);
#324=CIRCLE('',#836,26.4000000149012);
#325=CIRCLE('',#838,26.4000000149012);
#326=CIRCLE('',#840,65.);
#327=CIRCLE('',#842,26.4000000149012);
#328=VERTEX_POINT('',#1094);
#329=VERTEX_POINT('',#1095);
#330=VERTEX_POINT('',#1099);
#331=VERTEX_POINT('',#1100);
#332=VERTEX_POINT('',#1102);
#333=VERTEX_POINT('',#1106);
#334=VERTEX_POINT('',#1108);
#335=VERTEX_POINT('',#1112);
#336=VERTEX_POINT('',#1113);
#337=VERTEX_POINT('',#1115);
#338=VERTEX_POINT('',#1117);
#339=VERTEX_POINT('',#1120);
#340=VERTEX_POINT('',#1122);
#341=VERTEX_POINT('',#1124);
#342=VERTEX_POINT('',#1126);
#343=VERTEX_POINT('',#1128);
#344=VERTEX_POINT('',#1130);
#345=VERTEX_POINT('',#1132);
#346=VERTEX_POINT('',#1134);
#347=VERTEX_POINT('',#1136);
#348=VERTEX_POINT('',#1138);
#349=VERTEX_POINT('',#1140);
#350=VERTEX_POINT('',#1142);
#351=VERTEX_POINT('',#1144);
#352=VERTEX_POINT('',#1147);
#353=VERTEX_POINT('',#1151);
#354=VERTEX_POINT('',#1155);
#355=VERTEX_POINT('',#1159);
#356=VERTEX_POINT('',#1163);
#357=VERTEX_POINT('',#1167);
#358=VERTEX_POINT('',#1171);
#359=VERTEX_POINT('',#1175);
#360=VERTEX_POINT('',#1179);
#361=VERTEX_POINT('',#1183);
#362=VERTEX_POINT('',#1187);
#363=VERTEX_POINT('',#1191);
#364=VERTEX_POINT('',#1195);
#365=VERTEX_POINT('',#1199);
#366=VERTEX_POINT('',#1203);
#367=VERTEX_POINT('',#1207);
#368=VERTEX_POINT('',#1211);
#369=VERTEX_POINT('',#1213);
#370=VERTEX_POINT('',#1215);
#371=VERTEX_POINT('',#1217);
#372=VERTEX_POINT('',#1219);
#373=VERTEX_POINT('',#1221);
#374=VERTEX_POINT('',#1223);
#375=VERTEX_POINT('',#1225);
#376=VERTEX_POINT('',#1242);
#377=VERTEX_POINT('',#1246);
#378=VERTEX_POINT('',#1250);
#379=VERTEX_POINT('',#1254);
#380=VERTEX_POINT('',#1258);
#381=VERTEX_POINT('',#1262);
#382=VERTEX_POINT('',#1266);
#383=VERTEX_POINT('',#1268);
#384=VERTEX_POINT('',#1272);
#385=VERTEX_POINT('',#1274);
#386=VERTEX_POINT('',#1278);
#387=VERTEX_POINT('',#1280);
#388=VERTEX_POINT('',#1285);
#389=VERTEX_POINT('',#1289);
#390=EDGE_CURVE('',#328,#329,#266,.T.);
#391=EDGE_CURVE('',#329,#328,#267,.T.);
#392=EDGE_CURVE('',#330,#331,#268,.T.);
#393=EDGE_CURVE('',#332,#330,#269,.T.);
#394=EDGE_CURVE('',#331,#332,#270,.T.);
#395=EDGE_CURVE('',#333,#333,#271,.T.);
#396=EDGE_CURVE('',#333,#334,#62,.T.);
#397=EDGE_CURVE('',#334,#334,#272,.T.);
#398=EDGE_CURVE('',#335,#336,#273,.T.);
#399=EDGE_CURVE('',#336,#337,#274,.T.);
#400=EDGE_CURVE('',#337,#338,#275,.T.);
#401=EDGE_CURVE('',#338,#335,#276,.T.);
#402=EDGE_CURVE('',#339,#339,#277,.T.);
#403=EDGE_CURVE('',#340,#340,#278,.T.);
#404=EDGE_CURVE('',#341,#341,#279,.T.);
#405=EDGE_CURVE('',#342,#342,#280,.T.);
#406=EDGE_CURVE('',#343,#343,#281,.T.);
#407=EDGE_CURVE('',#344,#344,#282,.T.);
#408=EDGE_CURVE('',#345,#345,#283,.T.);
#409=EDGE_CURVE('',#346,#346,#284,.T.);
#410=EDGE_CURVE('',#347,#347,#285,.T.);
#411=EDGE_CURVE('',#348,#348,#286,.T.);
#412=EDGE_CURVE('',#349,#349,#287,.T.);
#413=EDGE_CURVE('',#350,#350,#288,.T.);
#414=EDGE_CURVE('',#351,#351,#289,.T.);
#415=EDGE_CURVE('',#334,#352,#63,.T.);
#416=EDGE_CURVE('',#352,#352,#290,.T.);
#417=EDGE_CURVE('',#339,#353,#64,.T.);
#418=EDGE_CURVE('',#353,#353,#291,.T.);
#419=EDGE_CURVE('',#353,#354,#65,.T.);
#420=EDGE_CURVE('',#354,#354,#292,.T.);
#421=EDGE_CURVE('',#351,#355,#66,.T.);
#422=EDGE_CURVE('',#355,#355,#293,.T.);
#423=EDGE_CURVE('',#355,#356,#67,.T.);
#424=EDGE_CURVE('',#356,#356,#294,.T.);
#425=EDGE_CURVE('',#340,#357,#68,.T.);
#426=EDGE_CURVE('',#357,#357,#295,.T.);
#427=EDGE_CURVE('',#357,#358,#69,.T.);
#428=EDGE_CURVE('',#358,#358,#296,.T.);
#429=EDGE_CURVE('',#350,#359,#70,.T.);
#430=EDGE_CURVE('',#359,#359,#297,.T.);
#431=EDGE_CURVE('',#359,#360,#71,.T.);
#432=EDGE_CURVE('',#360,#360,#298,.T.);
#433=EDGE_CURVE('',#341,#361,#72,.T.);
#434=EDGE_CURVE('',#361,#361,#299,.T.);
#435=EDGE_CURVE('',#361,#362,#73,.T.);
#436=EDGE_CURVE('',#362,#362,#300,.T.);
#437=EDGE_CURVE('',#349,#363,#74,.T.);
#438=EDGE_CURVE('',#363,#363,#301,.T.);
#439=EDGE_CURVE('',#363,#364,#75,.T.);
#440=EDGE_CURVE('',#364,#364,#302,.T.);
#441=EDGE_CURVE('',#342,#365,#76,.T.);
#442=EDGE_CURVE('',#365,#365,#303,.T.);
#443=EDGE_CURVE('',#365,#366,#77,.T.);
#444=EDGE_CURVE('',#366,#366,#304,.T.);
#445=EDGE_CURVE('',#367,#367,#305,.T.);
#446=EDGE_CURVE('',#367,#364,#78,.T.);
#447=EDGE_CURVE('',#368,#368,#306,.T.);
#448=EDGE_CURVE('',#369,#369,#307,.T.);
#449=EDGE_CURVE('',#370,#370,#308,.T.);
#450=EDGE_CURVE('',#371,#371,#309,.T.);
#451=EDGE_CURVE('',#372,#372,#310,.T.);
#452=EDGE_CURVE('',#373,#373,#311,.T.);
#453=EDGE_CURVE('',#374,#374,#312,.T.);
#454=EDGE_CURVE('',#375,#375,#313,.T.);
#455=EDGE_CURVE('',#369,#362,#79,.T.);
#456=EDGE_CURVE('',#375,#356,#80,.T.);
#457=EDGE_CURVE('',#370,#360,#81,.T.);
#458=EDGE_CURVE('',#374,#352,#82,.T.);
#459=EDGE_CURVE('',#371,#366,#83,.T.);
#460=EDGE_CURVE('',#373,#354,#84,.T.);
#461=EDGE_CURVE('',#372,#358,#85,.T.);
#462=EDGE_CURVE('',#343,#376,#86,.T.);
#463=EDGE_CURVE('',#376,#376,#314,.T.);
#464=EDGE_CURVE('',#344,#377,#87,.T.);
#465=EDGE_CURVE('',#377,#377,#315,.T.);
#466=EDGE_CURVE('',#345,#378,#88,.T.);
#467=EDGE_CURVE('',#378,#378,#316,.T.);
#468=EDGE_CURVE('',#346,#379,#89,.T.);
#469=EDGE_CURVE('',#379,#379,#317,.T.);
#470=EDGE_CURVE('',#347,#380,#90,.T.);
#471=EDGE_CURVE('',#380,#380,#318,.T.);
#472=EDGE_CURVE('',#348,#381,#91,.T.);
#473=EDGE_CURVE('',#381,#381,#319,.T.);
#474=EDGE_CURVE('',#328,#382,#92,.T.);
#475=EDGE_CURVE('',#383,#382,#320,.T.);
#476=EDGE_CURVE('',#383,#331,#93,.T.);
#477=EDGE_CURVE('',#332,#368,#94,.T.);
#478=EDGE_CURVE('',#330,#384,#95,.T.);
#479=EDGE_CURVE('',#385,#384,#321,.T.);
#480=EDGE_CURVE('',#385,#329,#96,.T.);
#481=EDGE_CURVE('',#382,#386,#322,.T.);
#482=EDGE_CURVE('',#387,#386,#323,.T.);
#483=EDGE_CURVE('',#387,#383,#324,.T.);
#484=EDGE_CURVE('',#387,#335,#97,.T.);
#485=EDGE_CURVE('',#388,#338,#98,.T.);
#486=EDGE_CURVE('',#384,#388,#325,.T.);
#487=EDGE_CURVE('',#389,#388,#326,.T.);
#488=EDGE_CURVE('',#389,#337,#99,.T.);
#489=EDGE_CURVE('',#389,#385,#327,.T.);
#490=EDGE_CURVE('',#386,#336,#100,.T.);
#491=ORIENTED_EDGE('',*,*,#390,.F.);
#492=ORIENTED_EDGE('',*,*,#391,.F.);
#493=ORIENTED_EDGE('',*,*,#392,.F.);
#494=ORIENTED_EDGE('',*,*,#393,.F.);
#495=ORIENTED_EDGE('',*,*,#394,.F.);
#496=ORIENTED_EDGE('',*,*,#395,.T.);
#497=ORIENTED_EDGE('',*,*,#396,.T.);
#498=ORIENTED_EDGE('',*,*,#397,.T.);
#499=ORIENTED_EDGE('',*,*,#396,.F.);
#500=ORIENTED_EDGE('',*,*,#398,.T.);
#501=ORIENTED_EDGE('',*,*,#399,.T.);
#502=ORIENTED_EDGE('',*,*,#400,.T.);
#503=ORIENTED_EDGE('',*,*,#401,.T.);
#504=ORIENTED_EDGE('',*,*,#402,.F.);
#505=ORIENTED_EDGE('',*,*,#403,.F.);
#506=ORIENTED_EDGE('',*,*,#404,.F.);
#507=ORIENTED_EDGE('',*,*,#405,.F.);
#508=ORIENTED_EDGE('',*,*,#406,.T.);
#509=ORIENTED_EDGE('',*,*,#407,.T.);
#510=ORIENTED_EDGE('',*,*,#408,.T.);
#511=ORIENTED_EDGE('',*,*,#409,.T.);
#512=ORIENTED_EDGE('',*,*,#410,.T.);
#513=ORIENTED_EDGE('',*,*,#411,.T.);
#514=ORIENTED_EDGE('',*,*,#412,.F.);
#515=ORIENTED_EDGE('',*,*,#413,.F.);
#516=ORIENTED_EDGE('',*,*,#414,.F.);
#517=ORIENTED_EDGE('',*,*,#395,.F.);
#518=ORIENTED_EDGE('',*,*,#397,.F.);
#519=ORIENTED_EDGE('',*,*,#415,.T.);
#520=ORIENTED_EDGE('',*,*,#416,.F.);
#521=ORIENTED_EDGE('',*,*,#415,.F.);
#522=ORIENTED_EDGE('',*,*,#402,.T.);
#523=ORIENTED_EDGE('',*,*,#417,.T.);
#524=ORIENTED_EDGE('',*,*,#418,.T.);
#525=ORIENTED_EDGE('',*,*,#417,.F.);
#526=ORIENTED_EDGE('',*,*,#418,.F.);
#527=ORIENTED_EDGE('',*,*,#419,.T.);
#528=ORIENTED_EDGE('',*,*,#420,.F.);
#529=ORIENTED_EDGE('',*,*,#419,.F.);
#530=ORIENTED_EDGE('',*,*,#414,.T.);
#531=ORIENTED_EDGE('',*,*,#421,.T.);
#532=ORIENTED_EDGE('',*,*,#422,.T.);
#533=ORIENTED_EDGE('',*,*,#421,.F.);
#534=ORIENTED_EDGE('',*,*,#422,.F.);
#535=ORIENTED_EDGE('',*,*,#423,.T.);
#536=ORIENTED_EDGE('',*,*,#424,.F.);
#537=ORIENTED_EDGE('',*,*,#423,.F.);
#538=ORIENTED_EDGE('',*,*,#403,.T.);
#539=ORIENTED_EDGE('',*,*,#425,.T.);
#540=ORIENTED_EDGE('',*,*,#426,.T.);
#541=ORIENTED_EDGE('',*,*,#425,.F.);
#542=ORIENTED_EDGE('',*,*,#426,.F.);
#543=ORIENTED_EDGE('',*,*,#427,.T.);
#544=ORIENTED_EDGE('',*,*,#428,.F.);
#545=ORIENTED_EDGE('',*,*,#427,.F.);
#546=ORIENTED_EDGE('',*,*,#413,.T.);
#547=ORIENTED_EDGE('',*,*,#429,.T.);
#548=ORIENTED_EDGE('',*,*,#430,.T.);
#549=ORIENTED_EDGE('',*,*,#429,.F.);
#550=ORIENTED_EDGE('',*,*,#430,.F.);
#551=ORIENTED_EDGE('',*,*,#431,.T.);
#552=ORIENTED_EDGE('',*,*,#432,.F.);
#553=ORIENTED_EDGE('',*,*,#431,.F.);
#554=ORIENTED_EDGE('',*,*,#404,.T.);
#555=ORIENTED_EDGE('',*,*,#433,.T.);
#556=ORIENTED_EDGE('',*,*,#434,.T.);
#557=ORIENTED_EDGE('',*,*,#433,.F.);
#558=ORIENTED_EDGE('',*,*,#434,.F.);
#559=ORIENTED_EDGE('',*,*,#435,.T.);
#560=ORIENTED_EDGE('',*,*,#436,.F.);
#561=ORIENTED_EDGE('',*,*,#435,.F.);
#562=ORIENTED_EDGE('',*,*,#412,.T.);
#563=ORIENTED_EDGE('',*,*,#437,.T.);
#564=ORIENTED_EDGE('',*,*,#438,.T.);
#565=ORIENTED_EDGE('',*,*,#437,.F.);
#566=ORIENTED_EDGE('',*,*,#438,.F.);
#567=ORIENTED_EDGE('',*,*,#439,.T.);
#568=ORIENTED_EDGE('',*,*,#440,.F.);
#569=ORIENTED_EDGE('',*,*,#439,.F.);
#570=ORIENTED_EDGE('',*,*,#405,.T.);
#571=ORIENTED_EDGE('',*,*,#441,.T.);
#572=ORIENTED_EDGE('',*,*,#442,.T.);
#573=ORIENTED_EDGE('',*,*,#441,.F.);
#574=ORIENTED_EDGE('',*,*,#442,.F.);
#575=ORIENTED_EDGE('',*,*,#443,.T.);
#576=ORIENTED_EDGE('',*,*,#444,.F.);
#577=ORIENTED_EDGE('',*,*,#443,.F.);
#578=ORIENTED_EDGE('',*,*,#445,.T.);
#579=ORIENTED_EDGE('',*,*,#446,.T.);
#580=ORIENTED_EDGE('',*,*,#440,.T.);
#581=ORIENTED_EDGE('',*,*,#446,.F.);
#582=ORIENTED_EDGE('',*,*,#447,.F.);
#583=ORIENTED_EDGE('',*,*,#448,.F.);
#584=ORIENTED_EDGE('',*,*,#449,.F.);
#585=ORIENTED_EDGE('',*,*,#450,.F.);
#586=ORIENTED_EDGE('',*,*,#451,.F.);
#587=ORIENTED_EDGE('',*,*,#452,.F.);
#588=ORIENTED_EDGE('',*,*,#453,.F.);
#589=ORIENTED_EDGE('',*,*,#454,.F.);
#590=ORIENTED_EDGE('',*,*,#445,.F.);
#591=ORIENTED_EDGE('',*,*,#448,.T.);
#592=ORIENTED_EDGE('',*,*,#455,.T.);
#593=ORIENTED_EDGE('',*,*,#436,.T.);
#594=ORIENTED_EDGE('',*,*,#455,.F.);
#595=ORIENTED_EDGE('',*,*,#454,.T.);
#596=ORIENTED_EDGE('',*,*,#456,.T.);
#597=ORIENTED_EDGE('',*,*,#424,.T.);
#598=ORIENTED_EDGE('',*,*,#456,.F.);
#599=ORIENTED_EDGE('',*,*,#449,.T.);
#600=ORIENTED_EDGE('',*,*,#457,.T.);
#601=ORIENTED_EDGE('',*,*,#432,.T.);
#602=ORIENTED_EDGE('',*,*,#457,.F.);
#603=ORIENTED_EDGE('',*,*,#453,.T.);
#604=ORIENTED_EDGE('',*,*,#458,.T.);
#605=ORIENTED_EDGE('',*,*,#416,.T.);
#606=ORIENTED_EDGE('',*,*,#458,.F.);
#607=ORIENTED_EDGE('',*,*,#450,.T.);
#608=ORIENTED_EDGE('',*,*,#459,.T.);
#609=ORIENTED_EDGE('',*,*,#444,.T.);
#610=ORIENTED_EDGE('',*,*,#459,.F.);
#611=ORIENTED_EDGE('',*,*,#452,.T.);
#612=ORIENTED_EDGE('',*,*,#460,.T.);
#613=ORIENTED_EDGE('',*,*,#420,.T.);
#614=ORIENTED_EDGE('',*,*,#460,.F.);
#615=ORIENTED_EDGE('',*,*,#451,.T.);
#616=ORIENTED_EDGE('',*,*,#461,.T.);
#617=ORIENTED_EDGE('',*,*,#428,.T.);
#618=ORIENTED_EDGE('',*,*,#461,.F.);
#619=ORIENTED_EDGE('',*,*,#406,.F.);
#620=ORIENTED_EDGE('',*,*,#462,.T.);
#621=ORIENTED_EDGE('',*,*,#463,.F.);
#622=ORIENTED_EDGE('',*,*,#462,.F.);
#623=ORIENTED_EDGE('',*,*,#407,.F.);
#624=ORIENTED_EDGE('',*,*,#464,.T.);
#625=ORIENTED_EDGE('',*,*,#465,.F.);
#626=ORIENTED_EDGE('',*,*,#464,.F.);
#627=ORIENTED_EDGE('',*,*,#408,.F.);
#628=ORIENTED_EDGE('',*,*,#466,.T.);
#629=ORIENTED_EDGE('',*,*,#467,.F.);
#630=ORIENTED_EDGE('',*,*,#466,.F.);
#631=ORIENTED_EDGE('',*,*,#409,.F.);
#632=ORIENTED_EDGE('',*,*,#468,.T.);
#633=ORIENTED_EDGE('',*,*,#469,.F.);
#634=ORIENTED_EDGE('',*,*,#468,.F.);
#635=ORIENTED_EDGE('',*,*,#410,.F.);
#636=ORIENTED_EDGE('',*,*,#470,.T.);
#637=ORIENTED_EDGE('',*,*,#471,.F.);
#638=ORIENTED_EDGE('',*,*,#470,.F.);
#639=ORIENTED_EDGE('',*,*,#411,.F.);
#640=ORIENTED_EDGE('',*,*,#472,.T.);
#641=ORIENTED_EDGE('',*,*,#473,.F.);
#642=ORIENTED_EDGE('',*,*,#472,.F.);
#643=ORIENTED_EDGE('',*,*,#474,.T.);
#644=ORIENTED_EDGE('',*,*,#475,.F.);
#645=ORIENTED_EDGE('',*,*,#476,.T.);
#646=ORIENTED_EDGE('',*,*,#394,.T.);
#647=ORIENTED_EDGE('',*,*,#477,.T.);
#648=ORIENTED_EDGE('',*,*,#447,.T.);
#649=ORIENTED_EDGE('',*,*,#477,.F.);
#650=ORIENTED_EDGE('',*,*,#393,.T.);
#651=ORIENTED_EDGE('',*,*,#478,.T.);
#652=ORIENTED_EDGE('',*,*,#479,.F.);
#653=ORIENTED_EDGE('',*,*,#480,.T.);
#654=ORIENTED_EDGE('',*,*,#391,.T.);
#655=ORIENTED_EDGE('',*,*,#475,.T.);
#656=ORIENTED_EDGE('',*,*,#481,.T.);
#657=ORIENTED_EDGE('',*,*,#482,.F.);
#658=ORIENTED_EDGE('',*,*,#483,.T.);
#659=ORIENTED_EDGE('',*,*,#465,.T.);
#660=ORIENTED_EDGE('',*,*,#467,.T.);
#661=ORIENTED_EDGE('',*,*,#469,.T.);
#662=ORIENTED_EDGE('',*,*,#483,.F.);
#663=ORIENTED_EDGE('',*,*,#484,.T.);
#664=ORIENTED_EDGE('',*,*,#401,.F.);
#665=ORIENTED_EDGE('',*,*,#485,.F.);
#666=ORIENTED_EDGE('',*,*,#486,.F.);
#667=ORIENTED_EDGE('',*,*,#478,.F.);
#668=ORIENTED_EDGE('',*,*,#392,.T.);
#669=ORIENTED_EDGE('',*,*,#476,.F.);
#670=ORIENTED_EDGE('',*,*,#487,.T.);
#671=ORIENTED_EDGE('',*,*,#485,.T.);
#672=ORIENTED_EDGE('',*,*,#400,.F.);
#673=ORIENTED_EDGE('',*,*,#488,.F.);
#674=ORIENTED_EDGE('',*,*,#489,.F.);
#675=ORIENTED_EDGE('',*,*,#488,.T.);
#676=ORIENTED_EDGE('',*,*,#399,.F.);
#677=ORIENTED_EDGE('',*,*,#490,.F.);
#678=ORIENTED_EDGE('',*,*,#481,.F.);
#679=ORIENTED_EDGE('',*,*,#474,.F.);
#680=ORIENTED_EDGE('',*,*,#390,.T.);
#681=ORIENTED_EDGE('',*,*,#480,.F.);
#682=ORIENTED_EDGE('',*,*,#482,.T.);
#683=ORIENTED_EDGE('',*,*,#490,.T.);
#684=ORIENTED_EDGE('',*,*,#398,.F.);
#685=ORIENTED_EDGE('',*,*,#484,.F.);
#686=ORIENTED_EDGE('',*,*,#479,.T.);
#687=ORIENTED_EDGE('',*,*,#486,.T.);
#688=ORIENTED_EDGE('',*,*,#487,.F.);
#689=ORIENTED_EDGE('',*,*,#489,.T.);
#690=ORIENTED_EDGE('',*,*,#463,.T.);
#691=ORIENTED_EDGE('',*,*,#471,.T.);
#692=ORIENTED_EDGE('',*,*,#473,.T.);
#693=PLANE('',#742);
#694=PLANE('',#745);
#695=PLANE('',#752);
#696=PLANE('',#802);
#697=PLANE('',#833);
#698=PLANE('',#844);
#699=ADVANCED_FACE('',(#156),#693,.T.);
#700=ADVANCED_FACE('',(#157),#694,.T.);
#701=ADVANCED_FACE('',(#158),#140,.F.);
#702=ADVANCED_FACE('',(#159,#34,#35,#36,#37,#38,#39,#40,#41,#42,#43,#44,
#45,#46,#47),#695,.T.);
#703=ADVANCED_FACE('',(#160),#15,.F.);
#704=ADVANCED_FACE('',(#161),#141,.F.);
#705=ADVANCED_FACE('',(#162),#16,.F.);
#706=ADVANCED_FACE('',(#163),#142,.F.);
#707=ADVANCED_FACE('',(#164),#17,.F.);
#708=ADVANCED_FACE('',(#165),#143,.F.);
#709=ADVANCED_FACE('',(#166),#18,.F.);
#710=ADVANCED_FACE('',(#167),#144,.F.);
#711=ADVANCED_FACE('',(#168),#19,.F.);
#712=ADVANCED_FACE('',(#169),#145,.F.);
#713=ADVANCED_FACE('',(#170),#20,.F.);
#714=ADVANCED_FACE('',(#171),#146,.F.);
#715=ADVANCED_FACE('',(#172),#21,.F.);
#716=ADVANCED_FACE('',(#173),#147,.F.);
#717=ADVANCED_FACE('',(#174),#22,.F.);
#718=ADVANCED_FACE('',(#175),#148,.F.);
#719=ADVANCED_FACE('',(#176,#48,#49,#50,#51,#52,#53,#54,#55),#696,.T.);
#720=ADVANCED_FACE('',(#177),#149,.F.);
#721=ADVANCED_FACE('',(#178),#150,.F.);
#722=ADVANCED_FACE('',(#179),#151,.F.);
#723=ADVANCED_FACE('',(#180),#152,.F.);
#724=ADVANCED_FACE('',(#181),#153,.F.);
#725=ADVANCED_FACE('',(#182),#154,.F.);
#726=ADVANCED_FACE('',(#183),#155,.F.);
#727=ADVANCED_FACE('',(#184),#23,.F.);
#728=ADVANCED_FACE('',(#185),#24,.F.);
#729=ADVANCED_FACE('',(#186),#25,.F.);
#730=ADVANCED_FACE('',(#187),#26,.F.);
#731=ADVANCED_FACE('',(#188),#27,.F.);
#732=ADVANCED_FACE('',(#189),#28,.F.);
#733=ADVANCED_FACE('',(#190),#29,.T.);
#734=ADVANCED_FACE('',(#191,#56,#57,#58),#697,.F.);
#735=ADVANCED_FACE('',(#192),#30,.F.);
#736=ADVANCED_FACE('',(#193),#31,.T.);
#737=ADVANCED_FACE('',(#194),#32,.F.);
#738=ADVANCED_FACE('',(#195),#33,.T.);
#739=ADVANCED_FACE('',(#196,#59,#60,#61),#698,.F.);
#740=CLOSED_SHELL('',(#699,#700,#701,#702,#703,#704,#705,#706,#707,#708,
#709,#710,#711,#712,#713,#714,#715,#716,#717,#718,#719,#720,#721,#722,#723,
#724,#725,#726,#727,#728,#729,#730,#731,#732,#733,#734,#735,#736,#737,#738,
#739));
#741=AXIS2_PLACEMENT_3D('',#1092,#845,#846);
#742=AXIS2_PLACEMENT_3D('',#1093,#847,#848);
#743=AXIS2_PLACEMENT_3D('',#1096,#849,#850);
#744=AXIS2_PLACEMENT_3D('',#1097,#851,#852);
#745=AXIS2_PLACEMENT_3D('',#1098,#853,#854);
#746=AXIS2_PLACEMENT_3D('',#1101,#855,#856);
#747=AXIS2_PLACEMENT_3D('',#1103,#857,#858);
#748=AXIS2_PLACEMENT_3D('',#1104,#859,#860);
#749=AXIS2_PLACEMENT_3D('',#1105,#861,#862);
#750=AXIS2_PLACEMENT_3D('',#1107,#863,#864);
#751=AXIS2_PLACEMENT_3D('',#1110,#866,#867);
#752=AXIS2_PLACEMENT_3D('',#1111,#868,#869);
#753=AXIS2_PLACEMENT_3D('',#1114,#870,#871);
#754=AXIS2_PLACEMENT_3D('',#1116,#872,#873);
#755=AXIS2_PLACEMENT_3D('',#1118,#874,#875);
#756=AXIS2_PLACEMENT_3D('',#1119,#876,#877);
#757=AXIS2_PLACEMENT_3D('',#1121,#878,#879);
#758=AXIS2_PLACEMENT_3D('',#1123,#880,#881);
#759=AXIS2_PLACEMENT_3D('',#1125,#882,#883);
#760=AXIS2_PLACEMENT_3D('',#1127,#884,#885);
#761=AXIS2_PLACEMENT_3D('',#1129,#886,#887);
#762=AXIS2_PLACEMENT_3D('',#1131,#888,#889);
#763=AXIS2_PLACEMENT_3D('',#1133,#890,#891);
#764=AXIS2_PLACEMENT_3D('',#1135,#892,#893);
#765=AXIS2_PLACEMENT_3D('',#1137,#894,#895);
#766=AXIS2_PLACEMENT_3D('',#1139,#896,#897);
#767=AXIS2_PLACEMENT_3D('',#1141,#898,#899);
#768=AXIS2_PLACEMENT_3D('',#1143,#900,#901);
#769=AXIS2_PLACEMENT_3D('',#1145,#902,#903);
#770=AXIS2_PLACEMENT_3D('',#1146,#904,#905);
#771=AXIS2_PLACEMENT_3D('',#1149,#907,#908);
#772=AXIS2_PLACEMENT_3D('',#1150,#909,#910);
#773=AXIS2_PLACEMENT_3D('',#1153,#912,#913);
#774=AXIS2_PLACEMENT_3D('',#1154,#914,#915);
#775=AXIS2_PLACEMENT_3D('',#1157,#917,#918);
#776=AXIS2_PLACEMENT_3D('',#1158,#919,#920);
#777=AXIS2_PLACEMENT_3D('',#1161,#922,#923);
#778=AXIS2_PLACEMENT_3D('',#1162,#924,#925);
#779=AXIS2_PLACEMENT_3D('',#1165,#927,#928);
#780=AXIS2_PLACEMENT_3D('',#1166,#929,#930);
#781=AXIS2_PLACEMENT_3D('',#1169,#932,#933);
#782=AXIS2_PLACEMENT_3D('',#1170,#934,#935);
#783=AXIS2_PLACEMENT_3D('',#1173,#937,#938);
#784=AXIS2_PLACEMENT_3D('',#1174,#939,#940);
#785=AXIS2_PLACEMENT_3D('',#1177,#942,#943);
#786=AXIS2_PLACEMENT_3D('',#1178,#944,#945);
#787=AXIS2_PLACEMENT_3D('',#1181,#947,#948);
#788=AXIS2_PLACEMENT_3D('',#1182,#949,#950);
#789=AXIS2_PLACEMENT_3D('',#1185,#952,#953);
#790=AXIS2_PLACEMENT_3D('',#1186,#954,#955);
#791=AXIS2_PLACEMENT_3D('',#1189,#957,#958);
#792=AXIS2_PLACEMENT_3D('',#1190,#959,#960);
#793=AXIS2_PLACEMENT_3D('',#1193,#962,#963);
#794=AXIS2_PLACEMENT_3D('',#1194,#964,#965);
#795=AXIS2_PLACEMENT_3D('',#1197,#967,#968);
#796=AXIS2_PLACEMENT_3D('',#1198,#969,#970);
#797=AXIS2_PLACEMENT_3D('',#1201,#972,#973);
#798=AXIS2_PLACEMENT_3D('',#1202,#974,#975);
#799=AXIS2_PLACEMENT_3D('',#1205,#977,#978);
#800=AXIS2_PLACEMENT_3D('',#1206,#979,#980);
#801=AXIS2_PLACEMENT_3D('',#1208,#981,#982);
#802=AXIS2_PLACEMENT_3D('',#1210,#984,#985);
#803=AXIS2_PLACEMENT_3D('',#1212,#986,#987);
#804=AXIS2_PLACEMENT_3D('',#1214,#988,#989);
#805=AXIS2_PLACEMENT_3D('',#1216,#990,#991);
#806=AXIS2_PLACEMENT_3D('',#1218,#992,#993);
#807=AXIS2_PLACEMENT_3D('',#1220,#994,#995);
#808=AXIS2_PLACEMENT_3D('',#1222,#996,#997);
#809=AXIS2_PLACEMENT_3D('',#1224,#998,#999);
#810=AXIS2_PLACEMENT_3D('',#1226,#1000,#1001);
#811=AXIS2_PLACEMENT_3D('',#1227,#1002,#1003);
#812=AXIS2_PLACEMENT_3D('',#1229,#1005,#1006);
#813=AXIS2_PLACEMENT_3D('',#1231,#1008,#1009);
#814=AXIS2_PLACEMENT_3D('',#1233,#1011,#1012);
#815=AXIS2_PLACEMENT_3D('',#1235,#1014,#1015);
#816=AXIS2_PLACEMENT_3D('',#1237,#1017,#1018);
#817=AXIS2_PLACEMENT_3D('',#1239,#1020,#1021);
#818=AXIS2_PLACEMENT_3D('',#1241,#1023,#1024);
#819=AXIS2_PLACEMENT_3D('',#1244,#1026,#1027);
#820=AXIS2_PLACEMENT_3D('',#1245,#1028,#1029);
#821=AXIS2_PLACEMENT_3D('',#1248,#1031,#1032);
#822=AXIS2_PLACEMENT_3D('',#1249,#1033,#1034);
#823=AXIS2_PLACEMENT_3D('',#1252,#1036,#1037);
#824=AXIS2_PLACEMENT_3D('',#1253,#1038,#1039);
#825=AXIS2_PLACEMENT_3D('',#1256,#1041,#1042);
#826=AXIS2_PLACEMENT_3D('',#1257,#1043,#1044);
#827=AXIS2_PLACEMENT_3D('',#1260,#1046,#1047);
#828=AXIS2_PLACEMENT_3D('',#1261,#1048,#1049);
#829=AXIS2_PLACEMENT_3D('',#1264,#1051,#1052);
#830=AXIS2_PLACEMENT_3D('',#1265,#1053,#1054);
#831=AXIS2_PLACEMENT_3D('',#1269,#1056,#1057);
#832=AXIS2_PLACEMENT_3D('',#1275,#1061,#1062);
#833=AXIS2_PLACEMENT_3D('',#1277,#1064,#1065);
#834=AXIS2_PLACEMENT_3D('',#1279,#1066,#1067);
#835=AXIS2_PLACEMENT_3D('',#1281,#1068,#1069);
#836=AXIS2_PLACEMENT_3D('',#1282,#1070,#1071);
#837=AXIS2_PLACEMENT_3D('',#1283,#1072,#1073);
#838=AXIS2_PLACEMENT_3D('',#1287,#1076,#1077);
#839=AXIS2_PLACEMENT_3D('',#1288,#1078,#1079);
#840=AXIS2_PLACEMENT_3D('',#1290,#1080,#1081);
#841=AXIS2_PLACEMENT_3D('',#1292,#1083,#1084);
#842=AXIS2_PLACEMENT_3D('',#1293,#1085,#1086);
#843=AXIS2_PLACEMENT_3D('',#1295,#1088,#1089);
#844=AXIS2_PLACEMENT_3D('',#1296,#1090,#1091);
#845=DIRECTION('axis',(0.,0.,1.));
#846=DIRECTION('refdir',(1.,0.,0.));
#847=DIRECTION('center_axis',(0.,0.,1.));
#848=DIRECTION('ref_axis',(1.,0.,0.));
#849=DIRECTION('center_axis',(0.,0.,-1.));
#850=DIRECTION('ref_axis',(1.,0.,0.));
#851=DIRECTION('center_axis',(0.,0.,-1.));
#852=DIRECTION('ref_axis',(-1.,0.,0.));
#853=DIRECTION('center_axis',(0.,0.,1.));
#854=DIRECTION('ref_axis',(1.,0.,0.));
#855=DIRECTION('center_axis',(0.,0.,-1.));
#856=DIRECTION('ref_axis',(1.,0.,0.));
#857=DIRECTION('center_axis',(0.,0.,-1.));
#858=DIRECTION('ref_axis',(-1.,0.,0.));
#859=DIRECTION('center_axis',(0.,0.,-1.));
#860=DIRECTION('ref_axis',(-1.,0.,0.));
#861=DIRECTION('center_axis',(0.,0.,1.));
#862=DIRECTION('ref_axis',(1.,0.,0.));
#863=DIRECTION('center_axis',(0.,0.,1.));
#864=DIRECTION('ref_axis',(1.,0.,0.));
#865=DIRECTION('',(0.707106781186554,8.65956056235502E-17,-0.707106781186541));
#866=DIRECTION('center_axis',(0.,0.,-1.));
#867=DIRECTION('ref_axis',(1.,0.,0.));
#868=DIRECTION('center_axis',(0.,0.,1.));
#869=DIRECTION('ref_axis',(1.,0.,0.));
#870=DIRECTION('center_axis',(0.,0.,1.));
#871=DIRECTION('ref_axis',(1.,0.,0.));
#872=DIRECTION('center_axis',(0.,0.,-1.));
#873=DIRECTION('ref_axis',(1.,0.,0.));
#874=DIRECTION('center_axis',(0.,0.,1.));
#875=DIRECTION('ref_axis',(1.,0.,0.));
#876=DIRECTION('center_axis',(0.,0.,-1.));
#877=DIRECTION('ref_axis',(1.,0.,0.));
#878=DIRECTION('center_axis',(0.,0.,1.));
#879=DIRECTION('ref_axis',(1.,0.,0.));
#880=DIRECTION('center_axis',(0.,0.,1.));
#881=DIRECTION('ref_axis',(1.,0.,0.));
#882=DIRECTION('center_axis',(0.,0.,1.));
#883=DIRECTION('ref_axis',(1.,0.,0.));
#884=DIRECTION('center_axis',(0.,0.,1.));
#885=DIRECTION('ref_axis',(1.,0.,0.));
#886=DIRECTION('center_axis',(0.,0.,-1.));
#887=DIRECTION('ref_axis',(0.499999999999999,-0.866025403784439,0.));
#888=DIRECTION('center_axis',(0.,0.,-1.));
#889=DIRECTION('ref_axis',(-0.5,-0.866025403784438,0.));
#890=DIRECTION('center_axis',(0.,0.,-1.));
#891=DIRECTION('ref_axis',(-1.,1.22464679914735E-16,0.));
#892=DIRECTION('center_axis',(0.,0.,-1.));
#893=DIRECTION('ref_axis',(-0.5,0.866025403784439,0.));
#894=DIRECTION('center_axis',(0.,0.,-1.));
#895=DIRECTION('ref_axis',(0.5,0.866025403784439,0.));
#896=DIRECTION('center_axis',(0.,0.,-1.));
#897=DIRECTION('ref_axis',(1.,0.,0.));
#898=DIRECTION('center_axis',(0.,0.,1.));
#899=DIRECTION('ref_axis',(1.,0.,0.));
#900=DIRECTION('center_axis',(0.,0.,1.));
#901=DIRECTION('ref_axis',(1.,0.,0.));
#902=DIRECTION('center_axis',(0.,0.,1.));
#903=DIRECTION('ref_axis',(1.,0.,0.));
#904=DIRECTION('center_axis',(0.,0.,1.));
#905=DIRECTION('ref_axis',(1.,0.,0.));
#906=DIRECTION('',(0.,0.,-1.));
#907=DIRECTION('center_axis',(0.,0.,1.));
#908=DIRECTION('ref_axis',(1.,0.,0.));
#909=DIRECTION('center_axis',(0.,0.,1.));
#910=DIRECTION('ref_axis',(1.,0.,0.));
#911=DIRECTION('',(0.707106781186554,8.65956056235502E-17,-0.707106781186541));
#912=DIRECTION('center_axis',(0.,0.,-1.));
#913=DIRECTION('ref_axis',(1.,0.,0.));
#914=DIRECTION('center_axis',(0.,0.,1.));
#915=DIRECTION('ref_axis',(1.,0.,0.));
#916=DIRECTION('',(0.,0.,-1.));
#917=DIRECTION('center_axis',(0.,0.,1.));
#918=DIRECTION('ref_axis',(1.,0.,0.));
#919=DIRECTION('center_axis',(0.,0.,1.));
#920=DIRECTION('ref_axis',(1.,0.,0.));
#921=DIRECTION('',(0.707106781186554,8.65956056235502E-17,-0.707106781186541));
#922=DIRECTION('center_axis',(0.,0.,-1.));
#923=DIRECTION('ref_axis',(1.,0.,0.));
#924=DIRECTION('center_axis',(0.,0.,1.));
#925=DIRECTION('ref_axis',(1.,0.,0.));
#926=DIRECTION('',(0.,0.,-1.));
#927=DIRECTION('center_axis',(0.,0.,1.));
#928=DIRECTION('ref_axis',(1.,0.,0.));
#929=DIRECTION('center_axis',(0.,0.,1.));
#930=DIRECTION('ref_axis',(1.,0.,0.));
#931=DIRECTION('',(0.707106781186554,8.65956056235502E-17,-0.707106781186541));
#932=DIRECTION('center_axis',(0.,0.,-1.));
#933=DIRECTION('ref_axis',(1.,0.,0.));
#934=DIRECTION('center_axis',(0.,0.,1.));
#935=DIRECTION('ref_axis',(1.,0.,0.));
#936=DIRECTION('',(0.,0.,-1.));
#937=DIRECTION('center_axis',(0.,0.,1.));
#938=DIRECTION('ref_axis',(1.,0.,0.));
#939=DIRECTION('center_axis',(0.,0.,1.));
#940=DIRECTION('ref_axis',(1.,0.,0.));
#941=DIRECTION('',(0.707106781186554,8.65956056235502E-17,-0.707106781186541));
#942=DIRECTION('center_axis',(0.,0.,-1.));
#943=DIRECTION('ref_axis',(1.,0.,0.));
#944=DIRECTION('center_axis',(0.,0.,1.));
#945=DIRECTION('ref_axis',(1.,0.,0.));
#946=DIRECTION('',(0.,0.,-1.));
#947=DIRECTION('center_axis',(0.,0.,1.));
#948=DIRECTION('ref_axis',(1.,0.,0.));
#949=DIRECTION('center_axis',(0.,0.,1.));
#950=DIRECTION('ref_axis',(1.,0.,0.));
#951=DIRECTION('',(0.707106781186554,8.65956056235502E-17,-0.707106781186541));
#952=DIRECTION('center_axis',(0.,0.,-1.));
#953=DIRECTION('ref_axis',(1.,0.,0.));
#954=DIRECTION('center_axis',(0.,0.,1.));
#955=DIRECTION('ref_axis',(1.,0.,0.));
#956=DIRECTION('',(0.,0.,-1.));
#957=DIRECTION('center_axis',(0.,0.,1.));
#958=DIRECTION('ref_axis',(1.,0.,0.));
#959=DIRECTION('center_axis',(0.,0.,1.));
#960=DIRECTION('ref_axis',(1.,0.,0.));
#961=DIRECTION('',(0.707106781186554,8.65956056235502E-17,-0.707106781186541));
#962=DIRECTION('center_axis',(0.,0.,-1.));
#963=DIRECTION('ref_axis',(1.,0.,0.));
#964=DIRECTION('center_axis',(0.,0.,1.));
#965=DIRECTION('ref_axis',(1.,0.,0.));
#966=DIRECTION('',(0.,0.,-1.));
#967=DIRECTION('center_axis',(0.,0.,1.));
#968=DIRECTION('ref_axis',(1.,0.,0.));
#969=DIRECTION('center_axis',(0.,0.,1.));
#970=DIRECTION('ref_axis',(1.,0.,0.));
#971=DIRECTION('',(0.707106781186554,8.65956056235502E-17,-0.707106781186541));
#972=DIRECTION('center_axis',(0.,0.,-1.));
#973=DIRECTION('ref_axis',(1.,0.,0.));
#974=DIRECTION('center_axis',(0.,0.,1.));
#975=DIRECTION('ref_axis',(1.,0.,0.));
#976=DIRECTION('',(0.,0.,-1.));
#977=DIRECTION('center_axis',(0.,0.,1.));
#978=DIRECTION('ref_axis',(1.,0.,0.));
#979=DIRECTION('center_axis',(0.,0.,-1.));
#980=DIRECTION('ref_axis',(1.,0.,0.));
#981=DIRECTION('center_axis',(0.,0.,-1.));
#982=DIRECTION('ref_axis',(1.,0.,0.));
#983=DIRECTION('',(0.707106781186554,-8.65956056235502E-17,0.707106781186541));
#984=DIRECTION('center_axis',(0.,0.,-1.));
#985=DIRECTION('ref_axis',(1.,0.,0.));
#986=DIRECTION('center_axis',(0.,0.,1.));
#987=DIRECTION('ref_axis',(-1.,0.,0.));
#988=DIRECTION('center_axis',(0.,0.,-1.));
#989=DIRECTION('ref_axis',(1.,0.,0.));
#990=DIRECTION('center_axis',(0.,0.,-1.));
#991=DIRECTION('ref_axis',(1.,0.,0.));
#992=DIRECTION('center_axis',(0.,0.,-1.));
#993=DIRECTION('ref_axis',(1.,0.,0.));
#994=DIRECTION('center_axis',(0.,0.,-1.));
#995=DIRECTION('ref_axis',(1.,0.,0.));
#996=DIRECTION('center_axis',(0.,0.,-1.));
#997=DIRECTION('ref_axis',(1.,0.,0.));
#998=DIRECTION('center_axis',(0.,0.,-1.));
#999=DIRECTION('ref_axis',(1.,0.,0.));
#1000=DIRECTION('center_axis',(0.,0.,-1.));
#1001=DIRECTION('ref_axis',(1.,0.,0.));
#1002=DIRECTION('center_axis',(0.,0.,-1.));
#1003=DIRECTION('ref_axis',(1.,0.,0.));
#1004=DIRECTION('',(0.707106781186554,-8.65956056235502E-17,0.707106781186541));
#1005=DIRECTION('center_axis',(0.,0.,-1.));
#1006=DIRECTION('ref_axis',(1.,0.,0.));
#1007=DIRECTION('',(0.707106781186554,-8.65956056235502E-17,0.707106781186541));
#1008=DIRECTION('center_axis',(0.,0.,-1.));
#1009=DIRECTION('ref_axis',(1.,0.,0.));
#1010=DIRECTION('',(0.707106781186554,-8.65956056235502E-17,0.707106781186541));
#1011=DIRECTION('center_axis',(0.,0.,-1.));
#1012=DIRECTION('ref_axis',(1.,0.,0.));
#1013=DIRECTION('',(0.707106781186554,-8.65956056235502E-17,0.707106781186541));
#1014=DIRECTION('center_axis',(0.,0.,-1.));
#1015=DIRECTION('ref_axis',(1.,0.,0.));
#1016=DIRECTION('',(0.707106781186554,-8.65956056235502E-17,0.707106781186541));
#1017=DIRECTION('center_axis',(0.,0.,-1.));
#1018=DIRECTION('ref_axis',(1.,0.,0.));
#1019=DIRECTION('',(0.707106781186554,-8.65956056235502E-17,0.707106781186541));
#1020=DIRECTION('center_axis',(0.,0.,-1.));
#1021=DIRECTION('ref_axis',(1.,0.,0.));
#1022=DIRECTION('',(0.707106781186554,-8.65956056235502E-17,0.707106781186541));
#1023=DIRECTION('center_axis',(0.,0.,-1.));
#1024=DIRECTION('ref_axis',(0.499999999999999,-0.866025403784439,0.));
#1025=DIRECTION('',(0.,0.,-1.));
#1026=DIRECTION('center_axis',(0.,0.,1.));
#1027=DIRECTION('ref_axis',(0.499999999999999,-0.866025403784439,0.));
#1028=DIRECTION('center_axis',(0.,0.,-1.));
#1029=DIRECTION('ref_axis',(-0.5,-0.866025403784438,0.));
#1030=DIRECTION('',(0.,0.,-1.));
#1031=DIRECTION('center_axis',(0.,0.,1.));
#1032=DIRECTION('ref_axis',(-0.5,-0.866025403784438,0.));
#1033=DIRECTION('center_axis',(0.,0.,-1.));
#1034=DIRECTION('ref_axis',(-1.,1.22464679914735E-16,0.));
#1035=DIRECTION('',(0.,0.,-1.));
#1036=DIRECTION('center_axis',(0.,0.,1.));
#1037=DIRECTION('ref_axis',(-1.,1.22464679914735E-16,0.));
#1038=DIRECTION('center_axis',(0.,0.,-1.));
#1039=DIRECTION('ref_axis',(-0.5,0.866025403784439,0.));
#1040=DIRECTION('',(0.,0.,-1.));
#1041=DIRECTION('center_axis',(0.,0.,1.));
#1042=DIRECTION('ref_axis',(-0.5,0.866025403784439,0.));
#1043=DIRECTION('center_axis',(0.,0.,-1.));
#1044=DIRECTION('ref_axis',(0.5,0.866025403784439,0.));
#1045=DIRECTION('',(0.,0.,-1.));
#1046=DIRECTION('center_axis',(0.,0.,1.));
#1047=DIRECTION('ref_axis',(0.5,0.866025403784439,0.));
#1048=DIRECTION('center_axis',(0.,0.,-1.));
#1049=DIRECTION('ref_axis',(1.,0.,0.));
#1050=DIRECTION('',(0.,0.,-1.));
#1051=DIRECTION('center_axis',(0.,0.,1.));
#1052=DIRECTION('ref_axis',(1.,0.,0.));
#1053=DIRECTION('center_axis',(0.,0.,1.));
#1054=DIRECTION('ref_axis',(-1.,0.,0.));
#1055=DIRECTION('',(0.,0.,1.));
#1056=DIRECTION('center_axis',(0.,0.,1.));
#1057=DIRECTION('ref_axis',(-1.,0.,0.));
#1058=DIRECTION('',(0.,0.,-1.));
#1059=DIRECTION('',(0.,0.,-1.));
#1060=DIRECTION('',(0.,0.,1.));
#1061=DIRECTION('center_axis',(0.,0.,1.));
#1062=DIRECTION('ref_axis',(-1.,0.,0.));
#1063=DIRECTION('',(0.,0.,-1.));
#1064=DIRECTION('center_axis',(0.,0.,1.));
#1065=DIRECTION('ref_axis',(1.,0.,0.));
#1066=DIRECTION('center_axis',(0.,0.,1.));
#1067=DIRECTION('ref_axis',(1.,0.,0.));
#1068=DIRECTION('center_axis',(0.,0.,1.));
#1069=DIRECTION('ref_axis',(1.,0.,0.));
#1070=DIRECTION('center_axis',(0.,0.,1.));
#1071=DIRECTION('ref_axis',(1.,0.,0.));
#1072=DIRECTION('center_axis',(0.,0.,1.));
#1073=DIRECTION('ref_axis',(-1.,6.54265870789057E-13,0.));
#1074=DIRECTION('',(0.,0.,1.));
#1075=DIRECTION('',(0.,0.,1.));
#1076=DIRECTION('center_axis',(0.,0.,1.));
#1077=DIRECTION('ref_axis',(1.,0.,0.));
#1078=DIRECTION('center_axis',(0.,0.,1.));
#1079=DIRECTION('ref_axis',(1.,0.,0.));
#1080=DIRECTION('center_axis',(0.,0.,1.));
#1081=DIRECTION('ref_axis',(1.,0.,0.));
#1082=DIRECTION('',(0.,0.,1.));
#1083=DIRECTION('center_axis',(0.,0.,1.));
#1084=DIRECTION('ref_axis',(1.,0.,0.));
#1085=DIRECTION('center_axis',(0.,0.,1.));
#1086=DIRECTION('ref_axis',(1.,0.,0.));
#1087=DIRECTION('',(0.,0.,1.));
#1088=DIRECTION('center_axis',(0.,0.,1.));
#1089=DIRECTION('ref_axis',(1.,0.,0.));
#1090=DIRECTION('center_axis',(0.,0.,1.));
#1091=DIRECTION('ref_axis',(1.,0.,0.));
#1092=CARTESIAN_POINT('',(0.,0.,0.));
#1093=CARTESIAN_POINT('Origin',(591.086,0.,-3.3183821182251));
#1094=CARTESIAN_POINT('',(545.055592482533,19.5243843383468,-3.3183821182251));
#1095=CARTESIAN_POINT('',(545.055592482559,-19.5243843383236,-3.3183821182251));
#1096=CARTESIAN_POINT('Origin',(527.286,-4.55288200449148E-15,-3.3183821182251));
#1097=CARTESIAN_POINT('Origin',(591.085999999849,4.16111589629509E-11,-3.3183821182251));
#1098=CARTESIAN_POINT('Origin',(591.086,0.,-3.3183821182251));
#1099=CARTESIAN_POINT('',(637.116407517223,-19.524384338125,-3.3183821182251));
#1100=CARTESIAN_POINT('',(637.116407517248,19.5243843381482,-3.3183821182251));
#1101=CARTESIAN_POINT('Origin',(654.886,0.,-3.3183821182251));
#1102=CARTESIAN_POINT('',(641.085999999849,4.16172821969466E-11,-3.3183821182251));
#1103=CARTESIAN_POINT('Origin',(591.085999999849,4.16111589629509E-11,-3.3183821182251));
#1104=CARTESIAN_POINT('Origin',(591.085999999849,4.16111589629509E-11,-3.3183821182251));
#1105=CARTESIAN_POINT('Origin',(580.486,-10.6,1.0316178817749));
#1106=CARTESIAN_POINT('',(577.586,-10.6,1.6816178817749));
#1107=CARTESIAN_POINT('Origin',(580.486,-10.6,1.6816178817749));
#1108=CARTESIAN_POINT('',(578.886,-10.6,0.3816178817749));
#1109=CARTESIAN_POINT('',(578.236,-10.6,1.0316178817749));
#1110=CARTESIAN_POINT('Origin',(580.486,-10.6,0.3816178817749));
#1111=CARTESIAN_POINT('Origin',(591.085999999859,4.16111589629509E-11,1.6816178817749));
#1112=CARTESIAN_POINT('',(650.63521629465,26.055533743854,1.6816178817749));
#1113=CARTESIAN_POINT('',(531.536783705067,26.0555337439001,1.6816178817749));
#1114=CARTESIAN_POINT('Origin',(591.085999999849,4.16111589629509E-11,1.6816178817749));
#1115=CARTESIAN_POINT('',(531.536783705101,-26.0555337438945,1.6816178817749));
#1116=CARTESIAN_POINT('Origin',(527.286,-4.55288200449148E-15,1.6816178817749));
#1117=CARTESIAN_POINT('',(650.635216294616,-26.0555337438485,1.6816178817749));
#1118=CARTESIAN_POINT('Origin',(591.085999999849,4.16111589629509E-11,1.6816178817749));
#1119=CARTESIAN_POINT('Origin',(654.886,0.,1.6816178817749));
#1120=CARTESIAN_POINT('',(577.586,10.6,1.6816178817749));
#1121=CARTESIAN_POINT('Origin',(580.486,10.6,1.6816178817749));
#1122=CARTESIAN_POINT('',(598.786,10.6,1.6816178817749));
#1123=CARTESIAN_POINT('Origin',(601.686,10.6,1.6816178817749));
#1124=CARTESIAN_POINT('',(575.740920651117,-1.46537059637789E-15,1.6816178817749));
#1125=CARTESIAN_POINT('Origin',(578.640920651117,-1.11022302462516E-15,
1.6816178817749));
#1126=CARTESIAN_POINT('',(598.786,-10.6,1.6816178817749));
#1127=CARTESIAN_POINT('Origin',(601.686,-10.6,1.6816178817749));
#1128=CARTESIAN_POINT('',(540.464539282243,-27.321058083714,1.6816178817749));
#1129=CARTESIAN_POINT('Origin',(541.289539282243,-28.7499999999584,1.6816178817749));
#1130=CARTESIAN_POINT('',(542.114539282244,30.178941916286,1.6816178817749));
#1131=CARTESIAN_POINT('Origin',(541.289539282244,28.7500000000417,1.6816178817749));
#1132=CARTESIAN_POINT('',(592.735999999849,57.5000000000416,1.6816178817749));
#1133=CARTESIAN_POINT('Origin',(591.085999999849,57.5000000000416,1.6816178817749));
#1134=CARTESIAN_POINT('',(641.707460717454,27.3210580837973,1.6816178817749));
#1135=CARTESIAN_POINT('Origin',(640.882460717454,28.7500000000416,1.6816178817749));
#1136=CARTESIAN_POINT('',(640.057460717454,-30.1789419162027,1.6816178817749));
#1137=CARTESIAN_POINT('Origin',(640.882460717454,-28.7499999999584,1.6816178817749));
#1138=CARTESIAN_POINT('',(589.435999999849,-57.4999999999584,1.6816178817749));
#1139=CARTESIAN_POINT('Origin',(591.085999999849,-57.4999999999584,1.6816178817749));
#1140=CARTESIAN_POINT('',(588.186,-12.4450793488832,1.6816178817749));
#1141=CARTESIAN_POINT('Origin',(591.086,-12.4450793488832,1.6816178817749));
#1142=CARTESIAN_POINT('',(600.631079348883,7.55075452872429E-16,1.6816178817749));
#1143=CARTESIAN_POINT('Origin',(603.531079348883,1.11022302462516E-15,1.6816178817749));
#1144=CARTESIAN_POINT('',(588.186,12.4450793488832,1.6816178817749));
#1145=CARTESIAN_POINT('Origin',(591.086,12.4450793488832,1.6816178817749));
#1146=CARTESIAN_POINT('Origin',(580.486,-10.6,-2.3183821182251));
#1147=CARTESIAN_POINT('',(578.886,-10.6,-5.01838211822507));
#1148=CARTESIAN_POINT('',(578.886,-10.6,-2.3183821182251));
#1149=CARTESIAN_POINT('Origin',(580.486,-10.6,-5.01838211822507));
#1150=CARTESIAN_POINT('Origin',(580.486,10.6,1.0316178817749));
#1151=CARTESIAN_POINT('',(578.886,10.6,0.3816178817749));
#1152=CARTESIAN_POINT('',(578.236,10.6,1.0316178817749));
#1153=CARTESIAN_POINT('Origin',(580.486,10.6,0.3816178817749));
#1154=CARTESIAN_POINT('Origin',(580.486,10.6,-2.3183821182251));
#1155=CARTESIAN_POINT('',(578.886,10.6,-5.01838211822507));
#1156=CARTESIAN_POINT('',(578.886,10.6,-2.3183821182251));
#1157=CARTESIAN_POINT('Origin',(580.486,10.6,-5.01838211822507));
#1158=CARTESIAN_POINT('Origin',(591.086,12.4450793488832,1.0316178817749));
#1159=CARTESIAN_POINT('',(589.486,12.4450793488832,0.3816178817749));
#1160=CARTESIAN_POINT('',(588.836,12.4450793488832,1.0316178817749));
#1161=CARTESIAN_POINT('Origin',(591.086,12.4450793488832,0.3816178817749));
#1162=CARTESIAN_POINT('Origin',(591.086,12.4450793488832,-2.3183821182251));
#1163=CARTESIAN_POINT('',(589.486,12.4450793488832,-5.01838211822507));
#1164=CARTESIAN_POINT('',(589.486,12.4450793488832,-2.3183821182251));
#1165=CARTESIAN_POINT('Origin',(591.086,12.4450793488832,-5.01838211822507));
#1166=CARTESIAN_POINT('Origin',(601.686,10.6,1.0316178817749));
#1167=CARTESIAN_POINT('',(600.086,10.6,0.3816178817749));
#1168=CARTESIAN_POINT('',(599.436,10.6,1.0316178817749));
#1169=CARTESIAN_POINT('Origin',(601.686,10.6,0.3816178817749));
#1170=CARTESIAN_POINT('Origin',(601.686,10.6,-2.3183821182251));
#1171=CARTESIAN_POINT('',(600.086,10.6,-5.01838211822507));
#1172=CARTESIAN_POINT('',(600.086,10.6,-2.3183821182251));
#1173=CARTESIAN_POINT('Origin',(601.686,10.6,-5.01838211822507));
#1174=CARTESIAN_POINT('Origin',(603.531079348883,1.11022302462516E-15,1.0316178817749));
#1175=CARTESIAN_POINT('',(601.931079348883,1.30616651248873E-15,0.3816178817749));
#1176=CARTESIAN_POINT('',(601.281079348883,8.34677494817008E-16,1.0316178817749));
#1177=CARTESIAN_POINT('Origin',(603.531079348883,1.11022302462516E-15,0.3816178817749));
#1178=CARTESIAN_POINT('Origin',(603.531079348883,1.11022302462516E-15,-2.3183821182251));
#1179=CARTESIAN_POINT('',(601.931079348883,9.14279536761588E-16,-5.01838211822507));
#1180=CARTESIAN_POINT('',(601.931079348883,9.14279536761588E-16,-2.3183821182251));
#1181=CARTESIAN_POINT('Origin',(603.531079348883,1.11022302462516E-15,-5.01838211822507));
#1182=CARTESIAN_POINT('Origin',(578.640920651117,-1.11022302462516E-15,
1.0316178817749));
#1183=CARTESIAN_POINT('',(577.040920651117,-9.14279536761588E-16,0.3816178817749));
#1184=CARTESIAN_POINT('',(576.390920651117,-1.38576855443331E-15,1.0316178817749));
#1185=CARTESIAN_POINT('Origin',(578.640920651117,-1.11022302462516E-15,
0.3816178817749));
#1186=CARTESIAN_POINT('Origin',(578.640920651117,-1.11022302462516E-15,
-2.3183821182251));
#1187=CARTESIAN_POINT('',(577.040920651117,-1.30616651248873E-15,-5.01838211822507));
#1188=CARTESIAN_POINT('',(577.040920651117,-1.30616651248873E-15,-2.3183821182251));
#1189=CARTESIAN_POINT('Origin',(578.640920651117,-1.11022302462516E-15,
-5.01838211822507));
#1190=CARTESIAN_POINT('Origin',(591.086,-12.4450793488832,1.0316178817749));
#1191=CARTESIAN_POINT('',(589.486,-12.4450793488832,0.3816178817749));
#1192=CARTESIAN_POINT('',(588.836,-12.4450793488832,1.0316178817749));
#1193=CARTESIAN_POINT('Origin',(591.086,-12.4450793488832,0.3816178817749));
#1194=CARTESIAN_POINT('Origin',(591.086,-12.4450793488832,-2.3183821182251));
#1195=CARTESIAN_POINT('',(589.486,-12.4450793488832,-5.01838211822507));
#1196=CARTESIAN_POINT('',(589.486,-12.4450793488832,-2.3183821182251));
#1197=CARTESIAN_POINT('Origin',(591.086,-12.4450793488832,-5.01838211822507));
#1198=CARTESIAN_POINT('Origin',(601.686,-10.6,1.0316178817749));
#1199=CARTESIAN_POINT('',(600.086,-10.6,0.3816178817749));
#1200=CARTESIAN_POINT('',(599.436,-10.6,1.0316178817749));
#1201=CARTESIAN_POINT('Origin',(601.686,-10.6,0.3816178817749));
#1202=CARTESIAN_POINT('Origin',(601.686,-10.6,-2.3183821182251));
#1203=CARTESIAN_POINT('',(600.086,-10.6,-5.01838211822507));
#1204=CARTESIAN_POINT('',(600.086,-10.6,-2.3183821182251));
#1205=CARTESIAN_POINT('Origin',(601.686,-10.6,-5.01838211822507));
#1206=CARTESIAN_POINT('Origin',(591.086,-12.4450793488832,-5.66838211822507));
#1207=CARTESIAN_POINT('',(588.186,-12.4450793488832,-6.31838211822507));
#1208=CARTESIAN_POINT('Origin',(591.086,-12.4450793488832,-6.31838211822507));
#1209=CARTESIAN_POINT('',(588.836,-12.4450793488832,-5.66838211822507));
#1210=CARTESIAN_POINT('Origin',(591.085999999849,4.16022771787539E-11,-6.31838211822507));
#1211=CARTESIAN_POINT('',(641.085999999849,4.16172821969466E-11,-6.31838211822507));
#1212=CARTESIAN_POINT('Origin',(591.085999999849,4.16111589629509E-11,-6.31838211822507));
#1213=CARTESIAN_POINT('',(575.740920651117,-7.55075452872429E-16,-6.31838211822507));
#1214=CARTESIAN_POINT('Origin',(578.640920651117,-1.11022302462516E-15,
-6.31838211822507));
#1215=CARTESIAN_POINT('',(600.631079348883,1.46537059637789E-15,-6.31838211822507));
#1216=CARTESIAN_POINT('Origin',(603.531079348883,1.11022302462516E-15,-6.31838211822507));
#1217=CARTESIAN_POINT('',(598.786,-10.6,-6.31838211822507));
#1218=CARTESIAN_POINT('Origin',(601.686,-10.6,-6.31838211822507));
#1219=CARTESIAN_POINT('',(598.786,10.6,-6.31838211822507));
#1220=CARTESIAN_POINT('Origin',(601.686,10.6,-6.31838211822507));
#1221=CARTESIAN_POINT('',(577.586,10.6,-6.31838211822507));
#1222=CARTESIAN_POINT('Origin',(580.486,10.6,-6.31838211822507));
#1223=CARTESIAN_POINT('',(577.586,-10.6,-6.31838211822507));
#1224=CARTESIAN_POINT('Origin',(580.486,-10.6,-6.31838211822507));
#1225=CARTESIAN_POINT('',(588.186,12.4450793488832,-6.31838211822507));
#1226=CARTESIAN_POINT('Origin',(591.086,12.4450793488832,-6.31838211822507));
#1227=CARTESIAN_POINT('Origin',(578.640920651117,-1.11022302462516E-15,
-5.66838211822507));
#1228=CARTESIAN_POINT('',(576.390920651117,-8.34677494817008E-16,-5.66838211822507));
#1229=CARTESIAN_POINT('Origin',(591.086,12.4450793488832,-5.66838211822507));
#1230=CARTESIAN_POINT('',(588.836,12.4450793488832,-5.66838211822507));
#1231=CARTESIAN_POINT('Origin',(603.531079348883,1.11022302462516E-15,-5.66838211822507));
#1232=CARTESIAN_POINT('',(601.281079348883,1.38576855443331E-15,-5.66838211822507));
#1233=CARTESIAN_POINT('Origin',(580.486,-10.6,-5.66838211822507));
#1234=CARTESIAN_POINT('',(578.236,-10.6,-5.66838211822507));
#1235=CARTESIAN_POINT('Origin',(601.686,-10.6,-5.66838211822507));
#1236=CARTESIAN_POINT('',(599.436,-10.6,-5.66838211822507));
#1237=CARTESIAN_POINT('Origin',(580.486,10.6,-5.66838211822507));
#1238=CARTESIAN_POINT('',(578.236,10.6,-5.66838211822507));
#1239=CARTESIAN_POINT('Origin',(601.686,10.6,-5.66838211822507));
#1240=CARTESIAN_POINT('',(599.436,10.6,-5.66838211822507));
#1241=CARTESIAN_POINT('Origin',(541.289539282243,-28.7499999999584,-0.3183821182251));
#1242=CARTESIAN_POINT('',(540.464539282243,-27.321058083714,-2.3183821182251));
#1243=CARTESIAN_POINT('',(540.464539282243,-27.321058083714,-0.3183821182251));
#1244=CARTESIAN_POINT('Origin',(541.289539282243,-28.7499999999584,-2.3183821182251));
#1245=CARTESIAN_POINT('Origin',(541.289539282244,28.7500000000417,-0.3183821182251));
#1246=CARTESIAN_POINT('',(542.114539282244,30.178941916286,-2.3183821182251));
#1247=CARTESIAN_POINT('',(542.114539282244,30.178941916286,-0.3183821182251));
#1248=CARTESIAN_POINT('Origin',(541.289539282244,28.7500000000417,-2.3183821182251));
#1249=CARTESIAN_POINT('Origin',(591.085999999849,57.5000000000416,-0.3183821182251));
#1250=CARTESIAN_POINT('',(592.735999999849,57.5000000000416,-2.3183821182251));
#1251=CARTESIAN_POINT('',(592.735999999849,57.5000000000416,-0.3183821182251));
#1252=CARTESIAN_POINT('Origin',(591.085999999849,57.5000000000416,-2.3183821182251));
#1253=CARTESIAN_POINT('Origin',(640.882460717454,28.7500000000416,-0.3183821182251));
#1254=CARTESIAN_POINT('',(641.707460717454,27.3210580837973,-2.3183821182251));
#1255=CARTESIAN_POINT('',(641.707460717454,27.3210580837973,-0.3183821182251));
#1256=CARTESIAN_POINT('Origin',(640.882460717454,28.7500000000416,-2.3183821182251));
#1257=CARTESIAN_POINT('Origin',(640.882460717454,-28.7499999999584,-0.3183821182251));
#1258=CARTESIAN_POINT('',(640.057460717454,-30.1789419162027,-2.3183821182251));
#1259=CARTESIAN_POINT('',(640.057460717454,-30.1789419162027,-0.3183821182251));
#1260=CARTESIAN_POINT('Origin',(640.882460717454,-28.7499999999584,-2.3183821182251));
#1261=CARTESIAN_POINT('Origin',(591.085999999849,-57.4999999999584,-0.3183821182251));
#1262=CARTESIAN_POINT('',(589.435999999849,-57.4999999999584,-2.3183821182251));
#1263=CARTESIAN_POINT('',(589.435999999849,-57.4999999999584,-0.3183821182251));
#1264=CARTESIAN_POINT('Origin',(591.085999999849,-57.4999999999584,-2.3183821182251));
#1265=CARTESIAN_POINT('Origin',(591.085999999849,4.16111589629509E-11,-6.31838211822507));
#1266=CARTESIAN_POINT('',(545.055592482533,19.5243843383468,-2.3183821182251));
#1267=CARTESIAN_POINT('',(545.055592482533,19.5243843383468,-2.3183821182251));
#1268=CARTESIAN_POINT('',(637.116407517248,19.5243843381482,-2.3183821182251));
#1269=CARTESIAN_POINT('Origin',(591.085999999849,4.16111589629509E-11,-2.3183821182251));
#1270=CARTESIAN_POINT('',(637.116407517249,19.5243843381482,-2.3183821182251));
#1271=CARTESIAN_POINT('',(641.085999999849,4.16172821969466E-11,-6.31838211822507));
#1272=CARTESIAN_POINT('',(637.116407517223,-19.524384338125,-2.3183821182251));
#1273=CARTESIAN_POINT('',(637.116407517223,-19.524384338125,-2.3183821182251));
#1274=CARTESIAN_POINT('',(545.055592482559,-19.5243843383236,-2.3183821182251));
#1275=CARTESIAN_POINT('Origin',(591.085999999849,4.16111589629509E-11,-2.3183821182251));
#1276=CARTESIAN_POINT('',(545.055592482559,-19.5243843383236,-2.3183821182251));
#1277=CARTESIAN_POINT('Origin',(591.085999999859,4.16111589629509E-11,-2.3183821182251));
#1278=CARTESIAN_POINT('',(531.536783705067,26.0555337439001,-2.3183821182251));
#1279=CARTESIAN_POINT('Origin',(527.286,-4.55288200449148E-15,-2.3183821182251));
#1280=CARTESIAN_POINT('',(650.63521629465,26.055533743854,-2.3183821182251));
#1281=CARTESIAN_POINT('Origin',(591.085999999849,4.16111589629509E-11,-2.3183821182251));
#1282=CARTESIAN_POINT('Origin',(654.886,0.,-2.3183821182251));
#1283=CARTESIAN_POINT('Origin',(654.886,0.,-2.3183821182251));
#1284=CARTESIAN_POINT('',(650.63521629465,26.055533743854,-2.3183821182251));
#1285=CARTESIAN_POINT('',(650.635216294616,-26.0555337438485,-2.3183821182251));
#1286=CARTESIAN_POINT('',(650.635216294616,-26.0555337438485,-2.3183821182251));
#1287=CARTESIAN_POINT('Origin',(654.886,0.,-2.3183821182251));
#1288=CARTESIAN_POINT('Origin',(591.085999999849,4.16111589629509E-11,-2.3183821182251));
#1289=CARTESIAN_POINT('',(531.536783705101,-26.0555337438945,-2.3183821182251));
#1290=CARTESIAN_POINT('Origin',(591.085999999849,4.16111589629509E-11,-2.3183821182251));
#1291=CARTESIAN_POINT('',(531.536783705101,-26.0555337438945,-2.3183821182251));
#1292=CARTESIAN_POINT('Origin',(527.286,-4.55288200449148E-15,-2.3183821182251));
#1293=CARTESIAN_POINT('Origin',(527.286,-4.55288200449148E-15,-2.3183821182251));
#1294=CARTESIAN_POINT('',(531.536783705067,26.0555337439001,-2.3183821182251));
#1295=CARTESIAN_POINT('Origin',(591.085999999849,4.16111589629509E-11,-2.3183821182251));
#1296=CARTESIAN_POINT('Origin',(591.085999999859,4.16111589629509E-11,-2.3183821182251));
#1297=UNCERTAINTY_MEASURE_WITH_UNIT(LENGTH_MEASURE(0.01),#1301,
'DISTANCE_ACCURACY_VALUE',
'Maximum model space distance between geometric entities at asserted c
onnectivities');
#1298=UNCERTAINTY_MEASURE_WITH_UNIT(LENGTH_MEASURE(0.01),#1301,
'DISTANCE_ACCURACY_VALUE',
'Maximum model space distance between geometric entities at asserted c
onnectivities');
#1299=(
GEOMETRIC_REPRESENTATION_CONTEXT(3)
GLOBAL_UNCERTAINTY_ASSIGNED_CONTEXT((#1297))
GLOBAL_UNIT_ASSIGNED_CONTEXT((#1301,#1302,#1303))
REPRESENTATION_CONTEXT('','3D')
);
#1300=(
GEOMETRIC_REPRESENTATION_CONTEXT(3)
GLOBAL_UNCERTAINTY_ASSIGNED_CONTEXT((#1298))
GLOBAL_UNIT_ASSIGNED_CONTEXT((#1301,#1302,#1303))
REPRESENTATION_CONTEXT('','3D')
);
#1301=(
LENGTH_UNIT()
NAMED_UNIT(*)
SI_UNIT(.MILLI.,.METRE.)
);
#1302=(
NAMED_UNIT(*)
PLANE_ANGLE_UNIT()
SI_UNIT($,.RADIAN.)
);
#1303=(
NAMED_UNIT(*)
SI_UNIT($,.STERADIAN.)
SOLID_ANGLE_UNIT()
);
#1304=SHAPE_DEFINITION_REPRESENTATION(#1305,#1306);
#1305=PRODUCT_DEFINITION_SHAPE('',$,#1308);
#1306=SHAPE_REPRESENTATION('',(#741),#1299);
#1307=PRODUCT_DEFINITION_CONTEXT('part definition',#1312,'design');
#1308=PRODUCT_DEFINITION('bqap_bqfb_num_10 (v4~recovered)',
'bqap_bqfb_num_10 (v4~recovered)',#1309,#1307);
#1309=PRODUCT_DEFINITION_FORMATION('',$,#1314);
#1310=PRODUCT_RELATED_PRODUCT_CATEGORY(
'bqap_bqfb_num_10 (v4~recovered)','bqap_bqfb_num_10 (v4~recovered)',(#1314));
#1311=APPLICATION_PROTOCOL_DEFINITION('international standard',
'automotive_design',2009,#1312);
#1312=APPLICATION_CONTEXT(
'Core Data for Automotive Mechanical Design Process');
#1313=PRODUCT_CONTEXT('part definition',#1312,'mechanical');
#1314=PRODUCT('bqap_bqfb_num_10 (v4~recovered)',
'bqap_bqfb_num_10 (v4~recovered)',$,(#1313));
#1315=PRESENTATION_STYLE_ASSIGNMENT((#1321));
#1316=PRESENTATION_STYLE_ASSIGNMENT((#1322));
#1317=PRESENTATION_STYLE_ASSIGNMENT((#1323));
#1318=PRESENTATION_STYLE_ASSIGNMENT((#1324));
#1319=PRESENTATION_STYLE_ASSIGNMENT((#1325));
#1320=PRESENTATION_STYLE_ASSIGNMENT((#1326));
#1321=SURFACE_STYLE_USAGE(.BOTH.,#1327);
#1322=SURFACE_STYLE_USAGE(.BOTH.,#1328);
#1323=SURFACE_STYLE_USAGE(.BOTH.,#1329);
#1324=SURFACE_STYLE_USAGE(.BOTH.,#1330);
#1325=SURFACE_STYLE_USAGE(.BOTH.,#1331);
#1326=SURFACE_STYLE_USAGE(.BOTH.,#1332);
#1327=SURFACE_SIDE_STYLE('',(#1333));
#1328=SURFACE_SIDE_STYLE('',(#1334));
#1329=SURFACE_SIDE_STYLE('',(#1335));
#1330=SURFACE_SIDE_STYLE('',(#1336));
#1331=SURFACE_SIDE_STYLE('',(#1337));
#1332=SURFACE_SIDE_STYLE('',(#1338));
#1333=SURFACE_STYLE_FILL_AREA(#1339);
#1334=SURFACE_STYLE_FILL_AREA(#1340);
#1335=SURFACE_STYLE_FILL_AREA(#1341);
#1336=SURFACE_STYLE_FILL_AREA(#1342);
#1337=SURFACE_STYLE_FILL_AREA(#1343);
#1338=SURFACE_STYLE_FILL_AREA(#1344);
#1339=FILL_AREA_STYLE('Steel - Satin',(#1345));
#1340=FILL_AREA_STYLE('Opaque(160,160,160) (1)',(#1346));
#1341=FILL_AREA_STYLE('3D Cherry - Glossy',(#1347));
#1342=FILL_AREA_STYLE('Opaque(160,160,160)',(#1348));
#1343=FILL_AREA_STYLE('ABS (White)',(#1349));
#1344=FILL_AREA_STYLE('Opaque(160,160,160) (2)',(#1350));
#1345=FILL_AREA_STYLE_COLOUR('Steel - Satin',#1351);
#1346=FILL_AREA_STYLE_COLOUR('Opaque(160,160,160) (1)',#1352);
#1347=FILL_AREA_STYLE_COLOUR('3D Cherry - Glossy',#1353);
#1348=FILL_AREA_STYLE_COLOUR('Opaque(160,160,160)',#1354);
#1349=FILL_AREA_STYLE_COLOUR('ABS (White)',#1355);
#1350=FILL_AREA_STYLE_COLOUR('Opaque(160,160,160) (2)',#1356);
#1351=COLOUR_RGB('Steel - Satin',0.627450980392157,0.627450980392157,0.627450980392157);
#1352=COLOUR_RGB('Opaque(160,160,160) (1)',0.,0.,0.);
#1353=COLOUR_RGB('3D Cherry - Glossy',0.67843137254902,0.419607843137255,
0.262745098039216);
#1354=COLOUR_RGB('Opaque(160,160,160)',0.627450980392157,0.627450980392157,
0.627450980392157);
#1355=COLOUR_RGB('ABS (White)',0.964705882352941,0.964705882352941,0.952941176470588);
#1356=COLOUR_RGB('Opaque(160,160,160) (2)',0.627450980392157,0.627450980392157,
0.627450980392157);
ENDSEC;
END-ISO-10303-21;
