ISO-10303-21;
HEADER;
/* Generated by software containing ST-Developer
 * from STEP Tools, Inc. (www.steptools.com) 
 */

FILE_DESCRIPTION(
/* description */ (''),
/* implementation_level */ '2;1');

FILE_NAME(
/* name */ 'motor dummy.step',
/* time_stamp */ '2025-10-17T09:06:54-04:00',
/* author */ (''),
/* organization */ (''),
/* preprocessor_version */ 'ST-DEVELOPER v20.1',
/* originating_system */ 'Autodesk Translation Framework v14.10.0.0',
/* authorisation */ '');

FILE_SCHEMA (('AUTOMOTIVE_DESIGN { 1 0 10303 214 3 1 1 }'));
ENDSEC;

DATA;
#10=MECHANICAL_DESIGN_GEOMETRIC_PRESENTATION_REPRESENTATION('',(#17),#412);
#11=ITEM_DEFINED_TRANSFORMATION($,$,#244,#274);
#12=(
REPRESENTATION_RELATIONSHIP($,$,#423,#422)
REPRESENTATION_RELATIONSHIP_WITH_TRANSFORMATION(#11)
SHAPE_REPRESENTATION_RELATIONSHIP()
);
#13=CONTEXT_DEPENDENT_SHAPE_REPRESENTATION(#12,#421);
#14=NEXT_ASSEMBLY_USAGE_OCCURRENCE('motor dummy v1:1',
'motor dummy v1:1','motor dummy v1:1',#425,#426,'motor dummy v1:1');
#15=SHAPE_REPRESENTATION_RELATIONSHIP('SRR','None',#423,#16);
#16=ADVANCED_BREP_SHAPE_REPRESENTATION('',(#18),#411);
#17=STYLED_ITEM('',(#439),#18);
#18=MANIFOLD_SOLID_BREP('Body1',#230);
#19=FACE_BOUND('',#58,.T.);
#20=FACE_BOUND('',#59,.T.);
#21=FACE_BOUND('',#60,.T.);
#22=FACE_BOUND('',#61,.T.);
#23=FACE_BOUND('',#62,.T.);
#24=FACE_BOUND('',#63,.T.);
#25=FACE_BOUND('',#64,.T.);
#26=FACE_BOUND('',#65,.T.);
#27=FACE_BOUND('',#67,.T.);
#28=FACE_BOUND('',#68,.T.);
#29=FACE_BOUND('',#69,.T.);
#30=FACE_BOUND('',#70,.T.);
#31=FACE_BOUND('',#71,.T.);
#32=FACE_BOUND('',#72,.T.);
#33=FACE_BOUND('',#73,.T.);
#34=FACE_BOUND('',#74,.T.);
#35=PLANE('',#272);
#36=PLANE('',#273);
#37=FACE_OUTER_BOUND('',#48,.T.);
#38=FACE_OUTER_BOUND('',#49,.T.);
#39=FACE_OUTER_BOUND('',#50,.T.);
#40=FACE_OUTER_BOUND('',#51,.T.);
#41=FACE_OUTER_BOUND('',#52,.T.);
#42=FACE_OUTER_BOUND('',#53,.T.);
#43=FACE_OUTER_BOUND('',#54,.T.);
#44=FACE_OUTER_BOUND('',#55,.T.);
#45=FACE_OUTER_BOUND('',#56,.T.);
#46=FACE_OUTER_BOUND('',#57,.T.);
#47=FACE_OUTER_BOUND('',#66,.T.);
#48=EDGE_LOOP('',(#156,#157,#158,#159));
#49=EDGE_LOOP('',(#160,#161,#162,#163));
#50=EDGE_LOOP('',(#164,#165,#166,#167));
#51=EDGE_LOOP('',(#168,#169,#170,#171));
#52=EDGE_LOOP('',(#172,#173,#174,#175));
#53=EDGE_LOOP('',(#176,#177,#178,#179));
#54=EDGE_LOOP('',(#180,#181,#182,#183));
#55=EDGE_LOOP('',(#184,#185,#186,#187));
#56=EDGE_LOOP('',(#188,#189,#190,#191));
#57=EDGE_LOOP('',(#192));
#58=EDGE_LOOP('',(#193));
#59=EDGE_LOOP('',(#194));
#60=EDGE_LOOP('',(#195));
#61=EDGE_LOOP('',(#196));
#62=EDGE_LOOP('',(#197));
#63=EDGE_LOOP('',(#198));
#64=EDGE_LOOP('',(#199));
#65=EDGE_LOOP('',(#200));
#66=EDGE_LOOP('',(#201));
#67=EDGE_LOOP('',(#202));
#68=EDGE_LOOP('',(#203));
#69=EDGE_LOOP('',(#204));
#70=EDGE_LOOP('',(#205));
#71=EDGE_LOOP('',(#206));
#72=EDGE_LOOP('',(#207));
#73=EDGE_LOOP('',(#208));
#74=EDGE_LOOP('',(#209));
#75=LINE('',#354,#84);
#76=LINE('',#360,#85);
#77=LINE('',#366,#86);
#78=LINE('',#372,#87);
#79=LINE('',#378,#88);
#80=LINE('',#384,#89);
#81=LINE('',#390,#90);
#82=LINE('',#396,#91);
#83=LINE('',#402,#92);
#84=VECTOR('',#283,1.6);
#85=VECTOR('',#290,1.6);
#86=VECTOR('',#297,1.6);
#87=VECTOR('',#304,1.6);
#88=VECTOR('',#311,1.6);
#89=VECTOR('',#318,1.6);
#90=VECTOR('',#325,1.6);
#91=VECTOR('',#332,1.6);
#92=VECTOR('',#339,34.7);
#93=CIRCLE('',#246,1.6);
#94=CIRCLE('',#247,1.6);
#95=CIRCLE('',#249,1.6);
#96=CIRCLE('',#250,1.6);
#97=CIRCLE('',#252,1.6);
#98=CIRCLE('',#253,1.6);
#99=CIRCLE('',#255,1.6);
#100=CIRCLE('',#256,1.6);
#101=CIRCLE('',#258,1.6);
#102=CIRCLE('',#259,1.6);
#103=CIRCLE('',#261,1.6);
#104=CIRCLE('',#262,1.6);
#105=CIRCLE('',#264,1.6);
#106=CIRCLE('',#265,1.6);
#107=CIRCLE('',#267,1.6);
#108=CIRCLE('',#268,1.6);
#109=CIRCLE('',#270,34.7);
#110=CIRCLE('',#271,34.7);
#111=VERTEX_POINT('',#351);
#112=VERTEX_POINT('',#353);
#113=VERTEX_POINT('',#357);
#114=VERTEX_POINT('',#359);
#115=VERTEX_POINT('',#363);
#116=VERTEX_POINT('',#365);
#117=VERTEX_POINT('',#369);
#118=VERTEX_POINT('',#371);
#119=VERTEX_POINT('',#375);
#120=VERTEX_POINT('',#377);
#121=VERTEX_POINT('',#381);
#122=VERTEX_POINT('',#383);
#123=VERTEX_POINT('',#387);
#124=VERTEX_POINT('',#389);
#125=VERTEX_POINT('',#393);
#126=VERTEX_POINT('',#395);
#127=VERTEX_POINT('',#399);
#128=VERTEX_POINT('',#401);
#129=EDGE_CURVE('',#111,#111,#93,.T.);
#130=EDGE_CURVE('',#111,#112,#75,.T.);
#131=EDGE_CURVE('',#112,#112,#94,.T.);
#132=EDGE_CURVE('',#113,#113,#95,.T.);
#133=EDGE_CURVE('',#113,#114,#76,.T.);
#134=EDGE_CURVE('',#114,#114,#96,.T.);
#135=EDGE_CURVE('',#115,#115,#97,.T.);
#136=EDGE_CURVE('',#115,#116,#77,.T.);
#137=EDGE_CURVE('',#116,#116,#98,.T.);
#138=EDGE_CURVE('',#117,#117,#99,.T.);
#139=EDGE_CURVE('',#117,#118,#78,.T.);
#140=EDGE_CURVE('',#118,#118,#100,.T.);
#141=EDGE_CURVE('',#119,#119,#101,.T.);
#142=EDGE_CURVE('',#119,#120,#79,.T.);
#143=EDGE_CURVE('',#120,#120,#102,.T.);
#144=EDGE_CURVE('',#121,#121,#103,.T.);
#145=EDGE_CURVE('',#121,#122,#80,.T.);
#146=EDGE_CURVE('',#122,#122,#104,.T.);
#147=EDGE_CURVE('',#123,#123,#105,.T.);
#148=EDGE_CURVE('',#123,#124,#81,.T.);
#149=EDGE_CURVE('',#124,#124,#106,.T.);
#150=EDGE_CURVE('',#125,#125,#107,.T.);
#151=EDGE_CURVE('',#125,#126,#82,.T.);
#152=EDGE_CURVE('',#126,#126,#108,.T.);
#153=EDGE_CURVE('',#127,#127,#109,.T.);
#154=EDGE_CURVE('',#127,#128,#83,.T.);
#155=EDGE_CURVE('',#128,#128,#110,.T.);
#156=ORIENTED_EDGE('',*,*,#129,.T.);
#157=ORIENTED_EDGE('',*,*,#130,.T.);
#158=ORIENTED_EDGE('',*,*,#131,.F.);
#159=ORIENTED_EDGE('',*,*,#130,.F.);
#160=ORIENTED_EDGE('',*,*,#132,.T.);
#161=ORIENTED_EDGE('',*,*,#133,.T.);
#162=ORIENTED_EDGE('',*,*,#134,.F.);
#163=ORIENTED_EDGE('',*,*,#133,.F.);
#164=ORIENTED_EDGE('',*,*,#135,.T.);
#165=ORIENTED_EDGE('',*,*,#136,.T.);
#166=ORIENTED_EDGE('',*,*,#137,.F.);
#167=ORIENTED_EDGE('',*,*,#136,.F.);
#168=ORIENTED_EDGE('',*,*,#138,.T.);
#169=ORIENTED_EDGE('',*,*,#139,.T.);
#170=ORIENTED_EDGE('',*,*,#140,.F.);
#171=ORIENTED_EDGE('',*,*,#139,.F.);
#172=ORIENTED_EDGE('',*,*,#141,.T.);
#173=ORIENTED_EDGE('',*,*,#142,.T.);
#174=ORIENTED_EDGE('',*,*,#143,.F.);
#175=ORIENTED_EDGE('',*,*,#142,.F.);
#176=ORIENTED_EDGE('',*,*,#144,.T.);
#177=ORIENTED_EDGE('',*,*,#145,.T.);
#178=ORIENTED_EDGE('',*,*,#146,.F.);
#179=ORIENTED_EDGE('',*,*,#145,.F.);
#180=ORIENTED_EDGE('',*,*,#147,.T.);
#181=ORIENTED_EDGE('',*,*,#148,.T.);
#182=ORIENTED_EDGE('',*,*,#149,.F.);
#183=ORIENTED_EDGE('',*,*,#148,.F.);
#184=ORIENTED_EDGE('',*,*,#150,.T.);
#185=ORIENTED_EDGE('',*,*,#151,.T.);
#186=ORIENTED_EDGE('',*,*,#152,.F.);
#187=ORIENTED_EDGE('',*,*,#151,.F.);
#188=ORIENTED_EDGE('',*,*,#153,.F.);
#189=ORIENTED_EDGE('',*,*,#154,.T.);
#190=ORIENTED_EDGE('',*,*,#155,.T.);
#191=ORIENTED_EDGE('',*,*,#154,.F.);
#192=ORIENTED_EDGE('',*,*,#153,.T.);
#193=ORIENTED_EDGE('',*,*,#152,.T.);
#194=ORIENTED_EDGE('',*,*,#149,.T.);
#195=ORIENTED_EDGE('',*,*,#146,.T.);
#196=ORIENTED_EDGE('',*,*,#143,.T.);
#197=ORIENTED_EDGE('',*,*,#140,.T.);
#198=ORIENTED_EDGE('',*,*,#137,.T.);
#199=ORIENTED_EDGE('',*,*,#134,.T.);
#200=ORIENTED_EDGE('',*,*,#131,.T.);
#201=ORIENTED_EDGE('',*,*,#155,.F.);
#202=ORIENTED_EDGE('',*,*,#150,.F.);
#203=ORIENTED_EDGE('',*,*,#147,.F.);
#204=ORIENTED_EDGE('',*,*,#144,.F.);
#205=ORIENTED_EDGE('',*,*,#141,.F.);
#206=ORIENTED_EDGE('',*,*,#138,.F.);
#207=ORIENTED_EDGE('',*,*,#135,.F.);
#208=ORIENTED_EDGE('',*,*,#132,.F.);
#209=ORIENTED_EDGE('',*,*,#129,.F.);
#210=CYLINDRICAL_SURFACE('',#245,1.6);
#211=CYLINDRICAL_SURFACE('',#248,1.6);
#212=CYLINDRICAL_SURFACE('',#251,1.6);
#213=CYLINDRICAL_SURFACE('',#254,1.6);
#214=CYLINDRICAL_SURFACE('',#257,1.6);
#215=CYLINDRICAL_SURFACE('',#260,1.6);
#216=CYLINDRICAL_SURFACE('',#263,1.6);
#217=CYLINDRICAL_SURFACE('',#266,1.6);
#218=CYLINDRICAL_SURFACE('',#269,34.7);
#219=ADVANCED_FACE('',(#37),#210,.F.);
#220=ADVANCED_FACE('',(#38),#211,.F.);
#221=ADVANCED_FACE('',(#39),#212,.F.);
#222=ADVANCED_FACE('',(#40),#213,.F.);
#223=ADVANCED_FACE('',(#41),#214,.F.);
#224=ADVANCED_FACE('',(#42),#215,.F.);
#225=ADVANCED_FACE('',(#43),#216,.F.);
#226=ADVANCED_FACE('',(#44),#217,.F.);
#227=ADVANCED_FACE('',(#45),#218,.T.);
#228=ADVANCED_FACE('',(#46,#19,#20,#21,#22,#23,#24,#25,#26),#35,.T.);
#229=ADVANCED_FACE('',(#47,#27,#28,#29,#30,#31,#32,#33,#34),#36,.F.);
#230=CLOSED_SHELL('',(#219,#220,#221,#222,#223,#224,#225,#226,#227,#228,
#229));
#231=DERIVED_UNIT_ELEMENT(#233,1.);
#232=DERIVED_UNIT_ELEMENT(#414,-3.);
#233=(
MASS_UNIT()
NAMED_UNIT(*)
SI_UNIT(.KILO.,.GRAM.)
);
#234=DERIVED_UNIT((#231,#232));
#235=MEASURE_REPRESENTATION_ITEM('density measure',
POSITIVE_RATIO_MEASURE(7850.),#234);
#236=PROPERTY_DEFINITION_REPRESENTATION(#241,#238);
#237=PROPERTY_DEFINITION_REPRESENTATION(#242,#239);
#238=REPRESENTATION('material name',(#240),#411);
#239=REPRESENTATION('density',(#235),#411);
#240=DESCRIPTIVE_REPRESENTATION_ITEM('Steel','Steel');
#241=PROPERTY_DEFINITION('material property','material name',#426);
#242=PROPERTY_DEFINITION('material property','density of part',#426);
#243=AXIS2_PLACEMENT_3D('',#348,#275,#276);
#244=AXIS2_PLACEMENT_3D('',#349,#277,#278);
#245=AXIS2_PLACEMENT_3D('',#350,#279,#280);
#246=AXIS2_PLACEMENT_3D('',#352,#281,#282);
#247=AXIS2_PLACEMENT_3D('',#355,#284,#285);
#248=AXIS2_PLACEMENT_3D('',#356,#286,#287);
#249=AXIS2_PLACEMENT_3D('',#358,#288,#289);
#250=AXIS2_PLACEMENT_3D('',#361,#291,#292);
#251=AXIS2_PLACEMENT_3D('',#362,#293,#294);
#252=AXIS2_PLACEMENT_3D('',#364,#295,#296);
#253=AXIS2_PLACEMENT_3D('',#367,#298,#299);
#254=AXIS2_PLACEMENT_3D('',#368,#300,#301);
#255=AXIS2_PLACEMENT_3D('',#370,#302,#303);
#256=AXIS2_PLACEMENT_3D('',#373,#305,#306);
#257=AXIS2_PLACEMENT_3D('',#374,#307,#308);
#258=AXIS2_PLACEMENT_3D('',#376,#309,#310);
#259=AXIS2_PLACEMENT_3D('',#379,#312,#313);
#260=AXIS2_PLACEMENT_3D('',#380,#314,#315);
#261=AXIS2_PLACEMENT_3D('',#382,#316,#317);
#262=AXIS2_PLACEMENT_3D('',#385,#319,#320);
#263=AXIS2_PLACEMENT_3D('',#386,#321,#322);
#264=AXIS2_PLACEMENT_3D('',#388,#323,#324);
#265=AXIS2_PLACEMENT_3D('',#391,#326,#327);
#266=AXIS2_PLACEMENT_3D('',#392,#328,#329);
#267=AXIS2_PLACEMENT_3D('',#394,#330,#331);
#268=AXIS2_PLACEMENT_3D('',#397,#333,#334);
#269=AXIS2_PLACEMENT_3D('',#398,#335,#336);
#270=AXIS2_PLACEMENT_3D('',#400,#337,#338);
#271=AXIS2_PLACEMENT_3D('',#403,#340,#341);
#272=AXIS2_PLACEMENT_3D('',#404,#342,#343);
#273=AXIS2_PLACEMENT_3D('',#405,#344,#345);
#274=AXIS2_PLACEMENT_3D('',#406,#346,#347);
#275=DIRECTION('axis',(0.,0.,1.));
#276=DIRECTION('refdir',(1.,0.,0.));
#277=DIRECTION('axis',(0.,0.,1.));
#278=DIRECTION('refdir',(1.,0.,0.));
#279=DIRECTION('center_axis',(0.,0.,-1.));
#280=DIRECTION('ref_axis',(1.,0.,0.));
#281=DIRECTION('center_axis',(0.,0.,1.));
#282=DIRECTION('ref_axis',(1.,0.,0.));
#283=DIRECTION('',(0.,0.,-1.));
#284=DIRECTION('center_axis',(0.,0.,1.));
#285=DIRECTION('ref_axis',(1.,0.,0.));
#286=DIRECTION('center_axis',(0.,0.,-1.));
#287=DIRECTION('ref_axis',(1.,0.,0.));
#288=DIRECTION('center_axis',(0.,0.,1.));
#289=DIRECTION('ref_axis',(1.,0.,0.));
#290=DIRECTION('',(0.,0.,-1.));
#291=DIRECTION('center_axis',(0.,0.,1.));
#292=DIRECTION('ref_axis',(1.,0.,0.));
#293=DIRECTION('center_axis',(0.,0.,-1.));
#294=DIRECTION('ref_axis',(1.,0.,0.));
#295=DIRECTION('center_axis',(0.,0.,1.));
#296=DIRECTION('ref_axis',(1.,0.,0.));
#297=DIRECTION('',(0.,0.,-1.));
#298=DIRECTION('center_axis',(0.,0.,1.));
#299=DIRECTION('ref_axis',(1.,0.,0.));
#300=DIRECTION('center_axis',(0.,0.,-1.));
#301=DIRECTION('ref_axis',(1.,0.,0.));
#302=DIRECTION('center_axis',(0.,0.,1.));
#303=DIRECTION('ref_axis',(1.,0.,0.));
#304=DIRECTION('',(0.,0.,-1.));
#305=DIRECTION('center_axis',(0.,0.,1.));
#306=DIRECTION('ref_axis',(1.,0.,0.));
#307=DIRECTION('center_axis',(0.,0.,-1.));
#308=DIRECTION('ref_axis',(1.,0.,0.));
#309=DIRECTION('center_axis',(0.,0.,1.));
#310=DIRECTION('ref_axis',(1.,0.,0.));
#311=DIRECTION('',(0.,0.,-1.));
#312=DIRECTION('center_axis',(0.,0.,1.));
#313=DIRECTION('ref_axis',(1.,0.,0.));
#314=DIRECTION('center_axis',(0.,0.,-1.));
#315=DIRECTION('ref_axis',(1.,0.,0.));
#316=DIRECTION('center_axis',(0.,0.,1.));
#317=DIRECTION('ref_axis',(1.,0.,0.));
#318=DIRECTION('',(0.,0.,-1.));
#319=DIRECTION('center_axis',(0.,0.,1.));
#320=DIRECTION('ref_axis',(1.,0.,0.));
#321=DIRECTION('center_axis',(0.,0.,-1.));
#322=DIRECTION('ref_axis',(1.,0.,0.));
#323=DIRECTION('center_axis',(0.,0.,1.));
#324=DIRECTION('ref_axis',(1.,0.,0.));
#325=DIRECTION('',(0.,0.,-1.));
#326=DIRECTION('center_axis',(0.,0.,1.));
#327=DIRECTION('ref_axis',(1.,0.,0.));
#328=DIRECTION('center_axis',(0.,0.,-1.));
#329=DIRECTION('ref_axis',(1.,0.,0.));
#330=DIRECTION('center_axis',(0.,0.,1.));
#331=DIRECTION('ref_axis',(1.,0.,0.));
#332=DIRECTION('',(0.,0.,-1.));
#333=DIRECTION('center_axis',(0.,0.,1.));
#334=DIRECTION('ref_axis',(1.,0.,0.));
#335=DIRECTION('center_axis',(0.,0.,-1.));
#336=DIRECTION('ref_axis',(1.,0.,0.));
#337=DIRECTION('center_axis',(0.,0.,-1.));
#338=DIRECTION('ref_axis',(1.,0.,0.));
#339=DIRECTION('',(0.,0.,1.));
#340=DIRECTION('center_axis',(0.,0.,-1.));
#341=DIRECTION('ref_axis',(1.,0.,0.));
#342=DIRECTION('center_axis',(0.,0.,-1.));
#343=DIRECTION('ref_axis',(1.,0.,0.));
#344=DIRECTION('center_axis',(0.,0.,-1.));
#345=DIRECTION('ref_axis',(1.,0.,0.));
#346=DIRECTION('',(0.,0.,1.));
#347=DIRECTION('',(1.,0.,0.));
#348=CARTESIAN_POINT('',(0.,0.,0.));
#349=CARTESIAN_POINT('',(0.,0.,0.));
#350=CARTESIAN_POINT('Origin',(-1.11022302462516E-15,12.4450793488832,-6.31838211822507));
#351=CARTESIAN_POINT('',(-1.6,12.4450793488832,-6.31838211822507));
#352=CARTESIAN_POINT('Origin',(-1.11022302462516E-15,12.4450793488832,-6.31838211822507));
#353=CARTESIAN_POINT('',(-1.6,12.4450793488832,-35.6183821182251));
#354=CARTESIAN_POINT('',(-1.6,12.4450793488832,-6.31838211822507));
#355=CARTESIAN_POINT('Origin',(-1.11022302462516E-15,12.4450793488832,-35.6183821182251));
#356=CARTESIAN_POINT('Origin',(-10.6,10.6,-6.31838211822507));
#357=CARTESIAN_POINT('',(-12.2,10.6,-6.31838211822507));
#358=CARTESIAN_POINT('Origin',(-10.6,10.6,-6.31838211822507));
#359=CARTESIAN_POINT('',(-12.2,10.6,-35.6183821182251));
#360=CARTESIAN_POINT('',(-12.2,10.6,-6.31838211822507));
#361=CARTESIAN_POINT('Origin',(-10.6,10.6,-35.6183821182251));
#362=CARTESIAN_POINT('Origin',(10.6,-10.6,-6.31838211822507));
#363=CARTESIAN_POINT('',(9.,-10.6,-6.31838211822507));
#364=CARTESIAN_POINT('Origin',(10.6,-10.6,-6.31838211822507));
#365=CARTESIAN_POINT('',(9.,-10.6,-35.6183821182251));
#366=CARTESIAN_POINT('',(9.,-10.6,-6.31838211822507));
#367=CARTESIAN_POINT('Origin',(10.6,-10.6,-35.6183821182251));
#368=CARTESIAN_POINT('Origin',(-10.6,-10.6,-6.31838211822507));
#369=CARTESIAN_POINT('',(-12.2,-10.6,-6.31838211822507));
#370=CARTESIAN_POINT('Origin',(-10.6,-10.6,-6.31838211822507));
#371=CARTESIAN_POINT('',(-12.2,-10.6,-35.6183821182251));
#372=CARTESIAN_POINT('',(-12.2,-10.6,-6.31838211822507));
#373=CARTESIAN_POINT('Origin',(-10.6,-10.6,-35.6183821182251));
#374=CARTESIAN_POINT('Origin',(-12.4450793488832,-1.11022302462516E-15,
-6.31838211822507));
#375=CARTESIAN_POINT('',(-14.0450793488832,-9.1427953676158E-16,-6.31838211822507));
#376=CARTESIAN_POINT('Origin',(-12.4450793488832,-1.11022302462516E-15,
-6.31838211822507));
#377=CARTESIAN_POINT('',(-14.0450793488832,0.,-35.6183821182251));
#378=CARTESIAN_POINT('',(-14.0450793488832,-9.14279536761584E-16,-6.31838211822507));
#379=CARTESIAN_POINT('Origin',(-12.4450793488832,-1.11022302462516E-15,
-35.6183821182251));
#380=CARTESIAN_POINT('Origin',(10.6,10.6,-6.31838211822507));
#381=CARTESIAN_POINT('',(9.,10.6,-6.31838211822507));
#382=CARTESIAN_POINT('Origin',(10.6,10.6,-6.31838211822507));
#383=CARTESIAN_POINT('',(9.,10.6,-35.6183821182251));
#384=CARTESIAN_POINT('',(9.,10.6,-6.31838211822507));
#385=CARTESIAN_POINT('Origin',(10.6,10.6,-35.6183821182251));
#386=CARTESIAN_POINT('Origin',(12.4450793488832,1.11022302462516E-15,-6.31838211822507));
#387=CARTESIAN_POINT('',(10.8450793488832,1.30616651248873E-15,-6.31838211822507));
#388=CARTESIAN_POINT('Origin',(12.4450793488832,1.11022302462516E-15,-6.31838211822507));
#389=CARTESIAN_POINT('',(10.8450793488832,2.22044604925031E-15,-35.6183821182251));
#390=CARTESIAN_POINT('',(10.8450793488832,1.30616651248874E-15,-6.31838211822507));
#391=CARTESIAN_POINT('Origin',(12.4450793488832,1.11022302462516E-15,-35.6183821182251));
#392=CARTESIAN_POINT('Origin',(1.11022302462516E-15,-12.4450793488832,-6.31838211822507));
#393=CARTESIAN_POINT('',(-1.6,-12.4450793488832,-6.31838211822507));
#394=CARTESIAN_POINT('Origin',(1.11022302462516E-15,-12.4450793488832,-6.31838211822507));
#395=CARTESIAN_POINT('',(-1.6,-12.4450793488832,-35.6183821182251));
#396=CARTESIAN_POINT('',(-1.6,-12.4450793488832,-6.31838211822507));
#397=CARTESIAN_POINT('Origin',(1.11022302462516E-15,-12.4450793488832,-35.6183821182251));
#398=CARTESIAN_POINT('Origin',(-1.51274548443325E-10,4.16111589629509E-11,
-6.31838211822507));
#399=CARTESIAN_POINT('',(-34.7000000001513,4.16155998550494E-11,-35.6183821182251));
#400=CARTESIAN_POINT('Origin',(-1.51274548443325E-10,4.16111589629509E-11,
-35.6183821182251));
#401=CARTESIAN_POINT('',(-34.7000000001513,4.16154084873439E-11,-6.31838211822507));
#402=CARTESIAN_POINT('',(-34.7000000001513,4.16154084873439E-11,-6.31838211822507));
#403=CARTESIAN_POINT('Origin',(-1.51274548443325E-10,4.16111589629509E-11,
-6.31838211822507));
#404=CARTESIAN_POINT('Origin',(-1.51274548443325E-10,4.16111589629509E-11,
-35.6183821182251));
#405=CARTESIAN_POINT('Origin',(-1.51274548443325E-10,4.16111589629509E-11,
-6.31838211822507));
#406=CARTESIAN_POINT('',(0.,0.,-2.72167790697928));
#407=UNCERTAINTY_MEASURE_WITH_UNIT(LENGTH_MEASURE(0.01),#413,
'DISTANCE_ACCURACY_VALUE',
'Maximum model space distance between geometric entities at asserted c
onnectivities');
#408=UNCERTAINTY_MEASURE_WITH_UNIT(LENGTH_MEASURE(0.01),#413,
'DISTANCE_ACCURACY_VALUE',
'Maximum model space distance between geometric entities at asserted c
onnectivities');
#409=UNCERTAINTY_MEASURE_WITH_UNIT(LENGTH_MEASURE(0.01),#413,
'DISTANCE_ACCURACY_VALUE',
'Maximum model space distance between geometric entities at asserted c
onnectivities');
#410=(
GEOMETRIC_REPRESENTATION_CONTEXT(3)
GLOBAL_UNCERTAINTY_ASSIGNED_CONTEXT((#407))
GLOBAL_UNIT_ASSIGNED_CONTEXT((#413,#415,#416))
REPRESENTATION_CONTEXT('','3D')
);
#411=(
GEOMETRIC_REPRESENTATION_CONTEXT(3)
GLOBAL_UNCERTAINTY_ASSIGNED_CONTEXT((#408))
GLOBAL_UNIT_ASSIGNED_CONTEXT((#413,#415,#416))
REPRESENTATION_CONTEXT('','3D')
);
#412=(
GEOMETRIC_REPRESENTATION_CONTEXT(3)
GLOBAL_UNCERTAINTY_ASSIGNED_CONTEXT((#409))
GLOBAL_UNIT_ASSIGNED_CONTEXT((#413,#415,#416))
REPRESENTATION_CONTEXT('','3D')
);
#413=(
LENGTH_UNIT()
NAMED_UNIT(*)
SI_UNIT(.MILLI.,.METRE.)
);
#414=(
LENGTH_UNIT()
NAMED_UNIT(*)
SI_UNIT($,.METRE.)
);
#415=(
NAMED_UNIT(*)
PLANE_ANGLE_UNIT()
SI_UNIT($,.RADIAN.)
);
#416=(
NAMED_UNIT(*)
SI_UNIT($,.STERADIAN.)
SOLID_ANGLE_UNIT()
);
#417=SHAPE_DEFINITION_REPRESENTATION(#419,#422);
#418=SHAPE_DEFINITION_REPRESENTATION(#420,#423);
#419=PRODUCT_DEFINITION_SHAPE('',$,#425);
#420=PRODUCT_DEFINITION_SHAPE('',$,#426);
#421=PRODUCT_DEFINITION_SHAPE($,$,#14);
#422=SHAPE_REPRESENTATION('',(#243,#274),#410);
#423=SHAPE_REPRESENTATION('',(#244),#411);
#424=PRODUCT_DEFINITION_CONTEXT('part definition',#432,'design');
#425=PRODUCT_DEFINITION('bqap_bqfb_num_10 (v4~recovered)',
'bqap_bqfb_num_10 (v4~recovered)',#427,#424);
#426=PRODUCT_DEFINITION('1','motor dummy v1',#428,#424);
#427=PRODUCT_DEFINITION_FORMATION('',$,#434);
#428=PRODUCT_DEFINITION_FORMATION('',$,#435);
#429=PRODUCT_RELATED_PRODUCT_CATEGORY('bqap_bqfb_num_10 (v4~recovered)',
'bqap_bqfb_num_10 (v4~recovered)',(#434));
#430=PRODUCT_RELATED_PRODUCT_CATEGORY('motor dummy v1','motor dummy v1',
(#435));
#431=APPLICATION_PROTOCOL_DEFINITION('international standard',
'automotive_design',2009,#432);
#432=APPLICATION_CONTEXT(
'Core Data for Automotive Mechanical Design Process');
#433=PRODUCT_CONTEXT('part definition',#432,'mechanical');
#434=PRODUCT('bqap_bqfb_num_10 (v4~recovered)',
'bqap_bqfb_num_10 (v4~recovered)',$,(#433));
#435=PRODUCT('1','motor dummy v1','STEP AP214',(#433));
#436=PRESENTATION_STYLE_ASSIGNMENT((#442));
#437=PRESENTATION_STYLE_ASSIGNMENT((#443));
#438=PRESENTATION_STYLE_ASSIGNMENT((#444));
#439=PRESENTATION_STYLE_ASSIGNMENT((#445));
#440=PRESENTATION_STYLE_ASSIGNMENT((#446));
#441=PRESENTATION_STYLE_ASSIGNMENT((#447));
#442=SURFACE_STYLE_USAGE(.BOTH.,#448);
#443=SURFACE_STYLE_USAGE(.BOTH.,#449);
#444=SURFACE_STYLE_USAGE(.BOTH.,#450);
#445=SURFACE_STYLE_USAGE(.BOTH.,#451);
#446=SURFACE_STYLE_USAGE(.BOTH.,#452);
#447=SURFACE_STYLE_USAGE(.BOTH.,#453);
#448=SURFACE_SIDE_STYLE('',(#454));
#449=SURFACE_SIDE_STYLE('',(#455));
#450=SURFACE_SIDE_STYLE('',(#456));
#451=SURFACE_SIDE_STYLE('',(#457));
#452=SURFACE_SIDE_STYLE('',(#458));
#453=SURFACE_SIDE_STYLE('',(#459));
#454=SURFACE_STYLE_FILL_AREA(#460);
#455=SURFACE_STYLE_FILL_AREA(#461);
#456=SURFACE_STYLE_FILL_AREA(#462);
#457=SURFACE_STYLE_FILL_AREA(#463);
#458=SURFACE_STYLE_FILL_AREA(#464);
#459=SURFACE_STYLE_FILL_AREA(#465);
#460=FILL_AREA_STYLE('Steel - Satin',(#466));
#461=FILL_AREA_STYLE('Opaque(160,160,160) (1)',(#467));
#462=FILL_AREA_STYLE('3D Cherry - Glossy',(#468));
#463=FILL_AREA_STYLE('Opaque(160,160,160)',(#469));
#464=FILL_AREA_STYLE('ABS (White)',(#470));
#465=FILL_AREA_STYLE('Opaque(160,160,160) (2)',(#471));
#466=FILL_AREA_STYLE_COLOUR('Steel - Satin',#472);
#467=FILL_AREA_STYLE_COLOUR('Opaque(160,160,160) (1)',#473);
#468=FILL_AREA_STYLE_COLOUR('3D Cherry - Glossy',#474);
#469=FILL_AREA_STYLE_COLOUR('Opaque(160,160,160)',#475);
#470=FILL_AREA_STYLE_COLOUR('ABS (White)',#476);
#471=FILL_AREA_STYLE_COLOUR('Opaque(160,160,160) (2)',#477);
#472=COLOUR_RGB('Steel - Satin',0.627450980392157,0.627450980392157,0.627450980392157);
#473=COLOUR_RGB('Opaque(160,160,160) (1)',0.,0.,0.);
#474=COLOUR_RGB('3D Cherry - Glossy',0.67843137254902,0.419607843137255,
0.262745098039216);
#475=COLOUR_RGB('Opaque(160,160,160)',0.627450980392157,0.627450980392157,
0.627450980392157);
#476=COLOUR_RGB('ABS (White)',0.964705882352941,0.964705882352941,0.952941176470588);
#477=COLOUR_RGB('Opaque(160,160,160) (2)',0.627450980392157,0.627450980392157,
0.627450980392157);
ENDSEC;
END-ISO-10303-21;
